<svg width="16" height="16" viewBox="0 0 16 16" fill="none" xmlns="http://www.w3.org/2000/svg">
  <path fill-rule="evenodd" clip-rule="evenodd"
    d="M3.41412 0.585802C2.6331 -0.195267 1.3668 -0.195267 0.585772 0.585802C-0.195256 1.36687 -0.195258 2.63323 0.58577 3.4143L4.95717 7.78593L0.585999 12.1573C-0.195029 12.9384 -0.195029 14.2048 0.585999 14.9858C1.36703 15.7669 2.63332 15.7669 3.41435 14.9858L7.78552 10.6144L12.1566 14.9858C12.9377 15.7668 14.204 15.7668 14.985 14.9858C15.766 14.2047 15.766 12.9383 14.985 12.1573L10.6139 7.78593L14.9852 3.41435C15.7662 2.63328 15.7662 1.36692 14.9852 0.585848C14.2042 -0.195221 12.9379 -0.195223 12.1569 0.585846L7.78552 4.95743L3.41412 0.585802Z"
    fill="white" />
</svg>