<svg width="100%" height="100%" viewBox="0 0 700 360" fill="none" xmlns="http://www.w3.org/2000/svg">
  <path opacity="0.1"
    d="M646.349 284.719C645.569 286.343 644.792 287.946 644.016 289.527C642.806 291.983 641.612 294.392 640.433 296.753C639.909 297.799 639.384 298.826 638.873 299.852C633.092 311.269 627.694 321.367 623.109 329.671C618.949 337.195 612.772 343.5 605.225 347.924C597.678 352.348 589.039 354.729 580.213 354.818L478.266 355.89H477.19L468.451 355.981L460.975 356.059L438.052 356.299H437.124L425.454 356.423H425.097L353.167 357.176L288.96 357.826L281.491 357.904L235.106 358.391H235.052L204.969 358.703H204.646L109.523 359.697L81.0661 359.996C74.9937 360.063 68.9468 359.226 63.1374 357.514C53.0281 354.563 43.9428 349.003 36.859 341.432C24.6375 328.417 15.7302 313.231 9.74712 296.753C8.88221 294.375 8.07551 291.966 7.32702 289.527C-13.385 221.852 11.8648 134.541 57.309 76.1124C59.2136 73.6692 61.1497 71.2865 63.1172 68.9648L63.1642 68.9128C77.1402 52.3304 92.8103 38.477 109.502 28.6263C139.081 11.1406 171.854 6.21524 204.088 20.8939C231.361 33.3177 256.826 39.1593 281.511 40.7447C284.005 40.9007 286.499 41.0177 288.98 41.0891C345.604 42.8111 398.671 23.0901 460.989 10.3609C463.469 9.85403 465.957 9.3537 468.464 8.87936C512.92 0.328199 562.237 -4.1813 620.884 5.29904C626.977 6.26116 632.989 7.65101 638.873 9.45767C641.459 10.2634 643.951 11.1298 646.349 12.0568C674.342 23.0641 689.609 43.4024 696.096 68.8868C696.708 71.252 697.239 73.6582 697.689 76.1059C709.191 137.406 675.505 224.361 646.349 284.719Z"
    fill="#0483F8" />
  <g opacity="0.1">
    <path opacity="0.1"
      d="M150.606 70.5074V358.541L129.631 358.801C125.154 358.858 120.697 358.13 116.415 356.642V105.549H116.45C126.752 91.1088 138.302 79.0585 150.606 70.5074Z"
      fill="#5D72DF" />
    <path opacity="0.1"
      d="M584.186 111.812H112.134C113.537 109.687 114.965 107.614 116.415 105.594V105.55H583.011C583.464 107.595 583.855 109.683 584.186 111.812Z"
      fill="#5D72DF" />
    <path opacity="0.1"
      d="M546.318 56.1005V297.438H544.599C543.707 299.574 542.827 301.669 541.958 303.723C541.572 304.632 541.185 305.526 540.809 306.419V53.8171C542.714 54.5179 544.551 55.279 546.318 56.1005Z"
      fill="#5D72DF" />
    <path opacity="0.1"
      d="M415.199 53.3142V355.268L409.688 355.336V54.6029C411.517 54.162 413.35 53.7268 415.199 53.3142Z"
      fill="#5D72DF" />
    <path opacity="0.1"
      d="M282.9 81.3309V356.907L277.395 356.975V81.0313C279.232 81.1671 281.071 81.2457 282.9 81.3309Z"
      fill="#5D72DF" />
    <path opacity="0.1"
      d="M544.599 297.444C543.707 299.58 542.827 301.675 541.958 303.728H77.0761C76.4382 301.659 75.8439 299.565 75.292 297.444H544.599Z"
      fill="#5D72DF" />
  </g>
  <path d="M159.047 171.441H146.274V208.908H159.047V171.441Z" fill="#3F3D56" />
  <path d="M502.789 169.492H490.017V209.129H502.789V169.492Z" fill="#3F3D56" />
  <path
    d="M584.247 345.467V353.914L482.118 354.823L481.029 354.843L442.213 355.187L441.286 355.2L429.488 355.298H429.138L357.221 355.941L239.167 357H239.066L209.05 357.273L208.727 357.28L75.3525 358.462V348.715L106.713 330.522L169.636 330.015L170.98 330.008L171.424 330.002L172.768 329.982L202.979 329.742L204.331 329.735L204.761 329.729L206.105 329.722L215.793 329.644L216.048 329.638L239.946 329.443H240.141L426.624 327.922L431.188 327.89H431.646L435.128 327.857L460.438 327.656L461.783 327.637L463.026 327.624H463.672L471.544 327.565L473.103 327.546L475.194 327.533L481.749 327.474L492.148 327.39L493.493 327.377L495.832 327.364H496.269L546.493 326.948L584.247 345.467Z"
    fill="#65617D" />
  <path opacity="0.2"
    d="M584.247 345.467V353.914L482.118 354.823L481.029 354.843L442.213 355.187L441.286 355.2L429.488 355.298H429.138L357.221 355.941L239.167 357H239.066L209.05 357.273L208.727 357.28L75.3525 358.462V348.715L106.713 330.522L169.636 330.015L170.98 330.008L171.424 330.002L172.768 329.982L202.979 329.742L204.331 329.735L204.761 329.729L206.105 329.722L215.793 329.644L216.048 329.638L239.946 329.443H240.141L426.624 327.922L431.188 327.89H431.646L435.128 327.857L460.438 327.656L461.783 327.637L463.026 327.624H463.672L471.544 327.565L473.103 327.546L475.194 327.533L481.749 327.474L492.148 327.39L493.493 327.377L495.832 327.364H496.269L546.493 326.948L584.247 345.467Z"
    fill="black" />
  <path
    d="M203.08 312.984V328.897C203.081 329.651 202.86 330.389 202.443 331.026C202.027 331.664 201.432 332.173 200.727 332.497C200.203 332.742 199.63 332.876 199.047 332.887L175.585 333.367C174.959 333.382 174.337 333.255 173.77 332.997C173.053 332.679 172.446 332.17 172.02 331.528C171.595 330.887 171.369 330.14 171.37 329.378V312.984H203.08Z"
    fill="#3F3D56" />
  <path opacity="0.1"
    d="M203.08 312.984V328.897C203.081 329.651 202.86 330.389 202.443 331.026C202.027 331.664 201.432 332.173 200.727 332.497C200.203 332.742 199.63 332.876 199.047 332.887L175.585 333.367C174.959 333.382 174.337 333.255 173.77 332.997C173.053 332.679 172.446 332.17 172.02 331.528C171.595 330.887 171.369 330.14 171.37 329.378V312.984H203.08Z"
    fill="black" />
  <path
    d="M204.425 312.984V328.897C204.426 329.651 204.204 330.389 203.788 331.026C203.371 331.664 202.777 332.173 202.072 332.497C201.548 332.742 200.974 332.876 200.391 332.887L176.93 333.367C176.303 333.382 175.681 333.255 175.115 332.997C174.398 332.679 173.79 332.17 173.365 331.528C172.94 330.887 172.714 330.14 172.715 329.378V312.984H204.425Z"
    fill="#3F3D56" />
  <path d="M493.492 312.984H461.782V333.452H493.492V312.984Z" fill="#3F3D56" />
  <path opacity="0.1" d="M493.492 312.984H461.782V333.452H493.492V312.984Z" fill="black" />
  <path d="M492.148 312.984H460.438V333.452H492.148V312.984Z" fill="#3F3D56" />
  <path opacity="0.1" d="M159.047 171.435V175.158L146.274 174.84V171.435H159.047Z" fill="black" />
  <path
    d="M243.12 66.5469L227.772 173.111C227.675 173.792 227.321 174.414 226.78 174.859C226.238 175.304 225.545 175.54 224.835 175.522L101.947 172.442L99.6145 172.384C99.2078 172.375 98.8085 172.282 98.4414 172.114C98.0744 171.945 97.7483 171.704 97.4848 171.405C97.2206 171.107 97.025 170.758 96.91 170.381C96.7951 170.004 96.7635 169.608 96.8179 169.219L114.048 57.6644C114.159 56.9735 114.534 56.3478 115.098 55.9111C115.664 55.4744 116.378 55.2584 117.1 55.3057L240.431 63.376C240.828 63.3983 241.217 63.5001 241.572 63.6749C241.928 63.8497 242.241 64.0938 242.494 64.3918C242.747 64.6898 242.933 65.0349 243.041 65.4059C243.148 65.7769 243.175 66.1655 243.12 66.5469Z"
    fill="#65617D" />
  <path d="M122.295 63.1422L109.301 161.474L222.239 164.937L236.128 70.0688L122.295 63.1422Z" fill="#D4DFEC" />
  <path
    d="M396.581 61.6217H266.157C264.179 61.6217 262.574 63.1723 262.574 65.0849V170.785C262.574 172.698 264.179 174.249 266.157 174.249H396.581C398.56 174.249 400.164 172.698 400.164 170.785V65.0849C400.164 63.1723 398.56 61.6217 396.581 61.6217Z"
    fill="#65617D" />
  <path d="M394.107 69.2046H269.068V162.988H394.107V69.2046Z" fill="#D4DFEC" />
  <path opacity="0.1" d="M502.789 169.486V171.948L490.017 172.202V169.486H502.789Z" fill="black" />
  <path
    d="M560.422 167.406C560.44 167.676 560.402 167.946 560.31 168.2C560.217 168.455 560.072 168.688 559.884 168.888C559.695 169.087 559.467 169.247 559.213 169.359C558.959 169.471 558.684 169.531 558.405 169.538L432.56 172.052C432.037 172.063 431.53 171.882 431.139 171.545C430.749 171.209 430.505 170.743 430.456 170.239L419.639 61.5437C419.613 61.274 419.643 61.0019 419.728 60.7439C419.813 60.4858 419.952 60.2472 420.136 60.0425C420.319 59.8377 420.544 59.6711 420.796 59.5528C421.048 59.4344 421.322 59.3668 421.602 59.354L546.493 53.35L547.837 53.285C548.372 53.2578 548.897 53.4323 549.3 53.7717C549.704 54.1112 549.956 54.589 550.002 55.1044L560.422 167.406Z"
    fill="#65617D" />
  <path d="M426.825 65.7412L540.886 60.3221L550.519 159.089L437.359 161.688L426.825 65.7412Z" fill="#D4DFEC" />
  <path opacity="0.1"
    d="M560.421 167.406C560.439 167.676 560.401 167.946 560.308 168.2C560.216 168.455 560.071 168.688 559.882 168.888C559.694 169.087 559.466 169.247 559.212 169.359C558.958 169.471 558.683 169.531 558.404 169.538L546.492 53.35L547.836 53.285C548.371 53.2578 548.895 53.4323 549.299 53.7717C549.703 54.1112 549.954 54.589 550.001 55.1044L560.421 167.406Z"
    fill="black" />
  <path opacity="0.1"
    d="M117.12 55.2993L101.947 172.442L99.6145 172.384C99.2078 172.375 98.8085 172.282 98.4414 172.114C98.0744 171.945 97.7483 171.704 97.4848 171.405C97.2206 171.107 97.025 170.758 96.91 170.381C96.7951 170.004 96.7635 169.608 96.8179 169.219L114.048 57.6646C114.157 56.9688 114.534 56.3387 115.104 55.9001C115.674 55.4617 116.393 55.2471 117.12 55.2993Z"
    fill="black" />
  <path opacity="0.1" d="M159.047 197.81H146.274V208.908H159.047V197.81Z" fill="black" />
  <path opacity="0.1" d="M204.425 312.977V316.207L172.715 317.025V312.977H204.425Z" fill="black" />
  <path
    d="M260.39 201.676V310.969C260.381 311.637 260.109 312.275 259.627 312.753C259.145 313.231 258.491 313.511 257.801 313.536L128.964 316.85H128.931C128.23 316.842 127.559 316.569 127.063 316.089C126.567 315.61 126.284 314.962 126.275 314.283V201.676C126.284 200.998 126.567 200.35 127.063 199.87C127.559 199.391 128.23 199.118 128.931 199.109H257.734C258.436 199.118 259.106 199.391 259.602 199.87C260.098 200.35 260.381 200.998 260.39 201.676Z"
    fill="#65617D" />
  <path opacity="0.1"
    d="M128.964 199.109V316.85H128.931C128.23 316.842 127.559 316.569 127.063 316.089C126.567 315.61 126.284 314.962 126.275 314.283V201.676C126.284 200.998 126.567 200.35 127.063 199.87C127.559 199.391 128.23 199.118 128.931 199.109H128.964Z"
    fill="black" />
  <path d="M134.847 206.088H254.171V302.418L134.847 305.017V206.088Z" fill="#D4DFEC" />
  <path opacity="0.1" d="M502.789 197.81H490.017V209.129H502.789V197.81Z" fill="black" />
  <path opacity="0.1" d="M492.148 312.977V317.142L460.438 316.324V312.977H492.148Z" fill="black" />
  <path
    d="M533.996 201.676V314.283C533.987 314.967 533.7 315.62 533.196 316.1C532.693 316.581 532.014 316.85 531.307 316.85L402.443 313.536C401.753 313.511 401.099 313.231 400.618 312.753C400.136 312.275 399.863 311.637 399.854 310.969V201.676C399.863 200.998 400.146 200.35 400.642 199.87C401.138 199.391 401.809 199.118 402.51 199.109H531.313C532.02 199.111 532.697 199.381 533.199 199.861C533.7 200.342 533.987 200.994 533.996 201.676Z"
    fill="#65617D" />
  <path opacity="0.1"
    d="M533.996 201.676V314.283C533.987 314.967 533.7 315.62 533.196 316.1C532.694 316.581 532.015 316.85 531.307 316.85V199.109C532.015 199.109 532.694 199.379 533.196 199.859C533.7 200.339 533.987 200.992 533.996 201.676Z"
    fill="black" />
  <path d="M525.424 206.088H406.1V302.418L525.424 305.017V206.088Z" fill="#D4DFEC" />
  <path
    d="M396.52 201.676V310.969C396.512 311.637 396.239 312.275 395.757 312.753C395.275 313.231 394.622 313.511 393.932 313.536L265.095 316.85C264.388 316.85 263.709 316.581 263.206 316.1C262.703 315.62 262.416 314.967 262.406 314.283V201.676C262.415 200.998 262.698 200.35 263.194 199.87C263.69 199.391 264.36 199.118 265.062 199.109H393.865C394.567 199.118 395.237 199.391 395.733 199.87C396.229 200.35 396.512 200.998 396.52 201.676Z"
    fill="#65617D" />
  <path d="M270.977 206.088H390.301V302.418L270.977 305.017V206.088Z" fill="#D4DFEC" />
  <path opacity="0.1"
    d="M584.247 345.467V353.914L482.118 354.823L481.029 354.843L442.213 355.187L441.286 355.2L429.488 355.298H429.138L357.221 355.941L239.167 357H239.066L209.05 357.273L208.727 357.28L75.3525 358.462V348.715L211.49 347.851H211.813L239.368 347.669H239.496L429.797 346.454H429.992L430.106 346.448H430.422L433.642 346.428H434.624L484.7 346.103L487.658 346.09L488.316 346.084L584.247 345.467Z"
    fill="black" />
  <path
    d="M331.588 208.908C350.645 208.908 366.094 193.975 366.094 175.555C366.094 157.134 350.645 142.201 331.588 142.201C312.53 142.201 297.081 157.134 297.081 175.555C297.081 193.975 312.53 208.908 331.588 208.908Z"
    fill="#FBBEBE" />
  <path
    d="M366.1 243.782C366.1 243.782 299.211 251.579 305.598 243.782C307.91 240.962 308.549 232.606 308.421 223.086C308.381 220.195 308.273 217.199 308.119 214.217C307.379 199.921 305.598 185.951 305.598 185.951C305.598 185.951 364.084 159.31 357.361 180.428C354.672 188.96 355.553 200.942 357.596 212.189C358.195 215.471 358.887 218.687 359.613 221.741C361.385 229.19 363.551 236.547 366.1 243.782Z"
    fill="#FBBEBE" />
  <path opacity="0.1"
    d="M366.1 243.782C366.1 243.782 299.211 251.579 305.598 243.782C307.91 240.962 308.549 232.606 308.421 223.086C318.619 218.876 331.594 222.014 331.594 222.014C345.254 219.382 354.013 219.896 359.613 221.741C361.385 229.19 363.551 236.547 366.1 243.782Z"
    fill="black" />
  <path opacity="0.1" d="M250.138 281.144C250.138 281.144 288.456 300.313 302.237 298.039L250.138 281.144Z"
    fill="black" />
  <path opacity="0.1"
    d="M328.119 273.347C328.119 273.347 365.429 285.043 377.866 286.668C390.302 288.292 328.119 273.347 328.119 273.347Z"
    fill="black" />
  <path opacity="0.1"
    d="M369.502 235.712C350.007 239.181 313.302 238.434 297.437 237.908C303.251 217.765 331.607 224.613 331.607 224.613C366.705 217.843 369.394 231.891 369.502 235.712Z"
    fill="black" />
  <path
    d="M369.502 234.412C350.007 237.882 313.302 237.135 297.437 236.608C303.251 216.465 331.607 223.314 331.607 223.314C366.705 216.543 369.394 230.591 369.502 234.412Z"
    fill="#5D72DF" />
  <path
    d="M472.989 323.218C472.989 323.218 495.953 319.807 496.404 329.553C496.854 339.3 484.693 346.11 484.693 346.11L472.989 323.218Z"
    fill="#FBBEBE" />
  <path opacity="0.1"
    d="M357.597 212.189C356.609 212.616 355.599 212.994 354.571 213.32C347.325 215.737 340.017 218.174 332.387 219.058C324.757 219.941 316.751 219.161 310.095 215.484C309.397 215.102 308.723 214.679 308.079 214.217C307.339 199.921 305.558 185.951 305.558 185.951C305.558 185.951 364.043 159.31 357.321 180.428C354.645 188.96 355.553 200.942 357.597 212.189Z"
    fill="black" />
  <path opacity="0.1"
    d="M432.27 313.374L432.203 314.303V314.368L432.089 315.862L431.195 327.89L430.113 342.38L429.803 346.461L429.131 355.194V355.304L357.2 355.954L239.16 357.189V357.734H239.065V357.189V357.007L239.368 347.676L239.946 329.443L240.444 313.985L240.491 312.445C240.52 311.515 240.745 310.601 241.152 309.758C241.559 308.916 242.14 308.162 242.858 307.544C243.577 306.925 244.419 306.455 245.331 306.162C246.244 305.868 247.209 305.757 248.168 305.836C251.341 306.096 255.462 306.415 260.389 306.752L262.406 306.895C290.862 308.806 343.453 311.275 396.52 308.195C397.636 308.136 398.759 308.071 399.881 307.993C408.11 307.493 416.331 306.85 424.472 306.044C425.502 305.94 426.542 306.055 427.52 306.381C428.499 306.708 429.391 307.238 430.134 307.933C430.878 308.629 431.454 309.474 431.823 310.408C432.193 311.342 432.345 312.344 432.27 313.341V313.374Z"
    fill="black" />
  <path
    d="M239.14 357.734V357.189L357.201 355.948L429.132 355.298H429.334V355.187L430.006 346.454L430.294 342.556L431.397 327.864L432.264 316.233V315.947C432.304 315.411 432.279 314.872 432.191 314.342C432.194 314.32 432.194 314.298 432.191 314.277C432.006 313.18 431.544 312.145 430.846 311.262C430.105 310.344 429.136 309.624 428.028 309.17C426.92 308.715 425.71 308.541 424.514 308.663C416.373 309.469 408.151 310.112 399.923 310.612C398.8 310.69 397.677 310.755 396.561 310.814C343.494 313.861 290.904 311.392 262.447 309.514L260.431 309.371C255.503 309.033 251.382 308.721 248.209 308.455C246.463 308.313 244.725 308.801 243.33 309.824C241.934 310.847 240.98 312.334 240.652 313.998C240.585 314.35 240.544 314.706 240.531 315.063L240.075 329.462L239.45 347.702L239.154 357.033V357.215V357.76L239.14 357.734Z"
    fill="#3F3D56" />
  <path opacity="0.1"
    d="M432.472 317.929L431.645 327.89L430.415 342.737L430.105 346.454L429.433 354.778L429.393 355.194V355.304L429.292 356.266L429.366 355.304H429.171L357.24 355.954L239.159 357.189V357.007L239.489 347.676L240.161 329.443L240.591 317.324C240.613 316.635 240.812 315.962 241.171 315.366C241.53 314.77 242.038 314.27 242.648 313.913C243.41 313.462 244.3 313.257 245.189 313.328C246.601 313.439 248.335 313.569 250.359 313.712C253.646 313.946 257.7 314.218 262.419 314.504C271.158 315.037 282.123 315.609 294.687 316.077C329.644 317.376 376.836 317.812 421.662 314.017C423.679 313.848 425.763 313.66 427.8 313.471C428.606 313.393 429.418 313.543 430.139 313.9C430.343 313.998 430.537 314.116 430.717 314.251C431.303 314.661 431.766 315.212 432.062 315.849C432.13 315.976 432.187 316.109 432.23 316.246C432.432 316.784 432.514 317.358 432.472 317.929Z"
    fill="black" />
  <path opacity="0.1"
    d="M204.425 326.824V328.897C204.426 329.651 204.204 330.389 203.788 331.026C203.371 331.664 202.777 332.173 202.072 332.497L175.115 332.997C174.398 332.679 173.79 332.17 173.365 331.528C172.94 330.887 172.714 330.14 172.715 329.378V327.429L204.425 326.824Z"
    fill="black" />
  <path d="M204.761 333.718L169.636 334.368V328.735L204.761 328.085V333.718Z" fill="#3F3D56" />
  <path opacity="0.1" d="M204.761 333.718L169.636 334.368V328.735L204.761 328.085V333.718Z" fill="black" />
  <path d="M206.105 333.718L170.979 334.368V328.735L206.105 328.085V333.718Z" fill="#3F3D56" />
  <g opacity="0.1">
    <path opacity="0.1"
      d="M322.398 121.291C321.741 120.467 321.305 119.498 321.127 118.471C320.965 119.475 321.062 120.502 321.409 121.46C321.744 121.43 322.074 121.374 322.398 121.291Z"
      fill="black" />
    <path opacity="0.1"
      d="M313.859 125.606C313.733 124.809 313.649 124.007 313.61 123.202C313.61 124.001 313.61 124.807 313.61 125.612L313.859 125.606Z"
      fill="black" />
    <path opacity="0.1"
      d="M368.647 147.289C368.685 146.71 368.765 146.135 368.889 145.567C369.207 144.579 369.388 143.554 369.427 142.52C369.412 142.288 369.376 142.057 369.319 141.831C369.205 142.429 369.024 143.027 368.889 143.618C368.621 144.823 368.539 146.06 368.647 147.289Z"
      fill="black" />
    <path opacity="0.1"
      d="M354.665 127.211L355.398 127.724C356.015 127.292 356.594 126.81 357.125 126.282C357.378 125.944 357.535 125.547 357.58 125.132C357.625 124.717 357.556 124.298 357.381 123.916C357.314 124.065 357.228 124.204 357.125 124.332C356.298 125.359 354.47 125.924 354.665 127.211Z"
      fill="black" />
    <path opacity="0.1"
      d="M299.427 133.462C299.181 133.936 298.986 134.432 298.842 134.943C299.893 134.376 301.026 133.962 302.203 133.715L299.427 133.462Z"
      fill="black" />
    <path opacity="0.1"
      d="M308.697 126.392C308.256 126.157 307.833 125.89 307.433 125.593C307.417 125.85 307.437 126.108 307.494 126.36C307.895 126.341 308.298 126.352 308.697 126.392Z"
      fill="black" />
    <path opacity="0.1"
      d="M374.423 164.677C374.147 167.829 372.628 170.863 371.398 173.852C368.931 179.843 367.539 186.198 366.497 192.573C365.563 198.284 364.48 204.769 359.438 207.933C357.998 208.765 356.456 209.42 354.847 209.883C347.6 212.306 340.293 214.737 332.663 215.62C325.033 216.504 317.026 215.731 310.371 212.053C308.441 211.08 306.785 209.668 305.544 207.94C303.749 205.191 303.715 201.747 302.855 198.603C302.122 196.267 301.223 193.983 300.166 191.767C298.68 188.271 297.537 184.619 296.401 181.026C295.349 177.686 294.297 174.344 293.248 171C292.903 169.994 292.647 168.961 292.482 167.913C292.22 169.577 292.731 171.318 293.248 172.949C294.297 176.297 295.349 179.64 296.401 182.975C297.537 186.594 298.68 190.22 300.166 193.716C301.223 195.933 302.122 198.217 302.855 200.552C303.702 203.697 303.736 207.141 305.544 209.889C306.785 211.618 308.441 213.029 310.371 214.002C317.026 217.68 325.053 218.453 332.663 217.57C340.272 216.686 347.573 214.256 354.847 211.832C356.456 211.369 357.998 210.714 359.438 209.883C364.447 206.718 365.563 200.233 366.497 194.522C367.539 188.147 368.931 181.793 371.398 175.802C372.863 172.241 374.759 168.621 374.436 164.794C374.436 164.755 374.423 164.716 374.423 164.677Z"
      fill="black" />
    <path opacity="0.1"
      d="M293.961 162.163C293.961 162.163 293.961 162.117 293.961 162.091C294.083 160.946 293.977 159.788 293.652 158.68C293.518 157.967 293.43 157.246 293.389 156.522C293.312 157.897 293.4 159.275 293.652 160.629C293.759 161.136 293.88 161.649 293.961 162.163Z"
      fill="black" />
    <path opacity="0.1"
      d="M296.012 146.269C296.528 145.429 297.115 144.632 297.766 143.884C296.536 145.021 294.264 144.008 293.786 142.429C293.61 143.067 293.61 143.739 293.786 144.378C293.952 144.855 294.245 145.281 294.635 145.613C295.027 145.945 295.501 146.171 296.012 146.269Z"
      fill="black" />
  </g>
  <path opacity="0.1"
    d="M463.914 312.984C463.914 312.984 466.045 320.456 463.914 326.954C461.783 333.452 463.914 312.984 463.914 312.984Z"
    fill="black" />
  <path opacity="0.1"
    d="M472.989 320.606C472.989 320.606 473.883 330.093 471.866 331.776C469.849 333.459 472.989 320.606 472.989 320.606Z"
    fill="black" />
  <path d="M137.798 221.494L206.105 220.844" stroke="#0F3C75" stroke-width="2" stroke-miterlimit="10" />
  <path d="M137.798 229.597L206.105 228.954" stroke="#0F3C75" stroke-width="2" stroke-miterlimit="10" />
  <path d="M329.025 162.673L301.296 154.347L295.118 79.3055H363.016L356.831 154.336L329.025 162.673Z" fill="#264DE4" />
  <path d="M351.535 149.561L356.821 85.4452H329.071V156.29L351.535 149.561Z" fill="#2965F1" />
  <path
    d="M309.3 113.264L310.062 122.466H329.085V113.264H309.3ZM307.769 94.6357L308.541 103.838H329.082V94.6357H307.752H307.769ZM329.082 137.167H329.045L319.578 134.397L318.972 127.056H310.423L311.613 141.507L329.025 146.752H329.065L329.082 137.167Z"
    fill="#EBEBEB" />
  <path
    d="M348.797 113.264L350.332 94.6357H329.025V103.838H341.004L340.232 113.249H329.025V122.452H339.493L338.49 134.397L329.025 137.174V146.748L346.45 141.518L346.577 139.961L348.583 115.73L348.79 113.257L348.797 113.264Z"
    fill="white" />
  <path d="M137.798 237.706L206.105 237.057" stroke="#0F3C75" stroke-width="2" stroke-miterlimit="10" />
  <path
    d="M322.122 123.422C321.162 123.667 320.157 123.692 319.186 123.495C318.214 123.297 317.305 122.883 316.528 122.285L317.927 124.163C317.103 124.255 316.268 124.172 315.48 123.92C314.693 123.667 313.973 123.251 313.369 122.701C313.242 124.382 313.314 126.072 313.584 127.737C311.27 127.845 308.993 127.154 307.157 125.788C307.122 126.374 307.272 126.957 307.59 127.458C307.907 127.958 308.375 128.353 308.932 128.588C306.608 128.32 304.262 128.878 302.333 130.159C300.402 131.439 299.021 133.354 298.445 135.547L301.954 135.859C299.196 136.429 296.721 137.889 294.936 139.998C293.86 141.298 293.04 142.961 293.511 144.547C293.981 146.132 296.253 147.146 297.49 146.015C295.731 148.045 294.452 150.423 293.744 152.981C293.035 155.539 292.914 158.216 293.39 160.824C293.709 161.935 293.814 163.094 293.699 164.242C293.477 165.314 292.778 166.243 292.428 167.289C291.756 169.187 292.395 171.247 292.993 173.137L296.146 183.157C297.289 186.776 298.425 190.402 299.917 193.905C300.974 196.119 301.873 198.4 302.606 200.734C303.453 203.879 303.487 207.323 305.295 210.071C306.535 211.801 308.191 213.213 310.122 214.184C316.77 217.862 324.804 218.642 332.414 217.758C340.024 216.874 347.324 214.438 354.564 212.02C356.173 211.552 357.717 210.898 359.163 210.071C364.171 206.9 365.287 200.415 366.221 194.704C367.263 188.336 368.655 181.981 371.122 175.99C372.587 172.423 374.483 168.803 374.16 164.983C373.75 159.908 369.596 155.795 368.567 150.804C368.223 149.136 368.239 147.418 368.614 145.756C368.934 144.765 369.112 143.738 369.146 142.702C369.031 140.609 367.256 138.998 365.589 137.653C361.973 134.733 358.24 131.974 354.39 129.374C354.195 128.075 356.023 127.516 356.85 126.489C358.02 125.04 356.81 122.74 355.035 122.064C353.26 121.389 351.27 121.83 349.422 122.279C349.542 121.365 349.354 120.437 348.885 119.634C348.416 118.83 347.692 118.196 346.819 117.823C345.947 117.449 344.973 117.358 344.044 117.563C343.113 117.768 342.276 118.257 341.657 118.958C341.166 117.871 340.382 116.93 339.386 116.235C338.391 115.54 337.22 115.116 335.997 115.008C331.54 114.67 331.452 117.964 328.602 119.777C325.752 121.59 323.399 119.199 321.207 117.457C320.805 118.442 320.677 119.511 320.838 120.558C320.998 121.606 321.441 122.593 322.122 123.422Z"
    fill="#E5D78C" />
  <path d="M212.547 79.1098L200.997 152.015L171.855 158.286L143.948 148.239L142.796 74.4938L212.547 79.1098Z"
    fill="#E44D26" />
  <path d="M172.339 152.051L195.886 146.99L205.746 84.6844L177.245 82.7981L172.339 152.051Z" fill="#F16529" />
  <path
    d="M163.62 99.9705L175.971 100.788L176.608 91.793L154.716 90.344L154.753 92.7722L155.145 117.7L174.685 118.993L175.322 109.998L163.768 109.233L163.62 99.9705ZM163.996 122.804L155.239 122.224L155.461 136.429L172.961 142.741L173.003 142.743L173.668 133.358L173.63 133.355L164.098 130.005L163.996 122.804Z"
    fill="#EBEBEB" />
  <path
    d="M174.652 118.991L185.402 119.702L183.562 131.302L173.634 133.364L172.97 142.741L191.233 138.814L191.47 137.302L195.2 113.756L195.584 111.357L175.288 110.013L174.651 119.008L174.652 118.991ZM175.943 100.765L175.942 100.786L197.034 102.182L197.352 100.171L198.092 95.6364L198.472 93.2361L176.579 91.7871L175.944 100.761L175.943 100.765Z"
    fill="white" />
  <path d="M449.705 79.2957L516.817 75.5341L521.026 145.691L453.913 149.452L449.705 79.2957Z" fill="#F7DF1E" />
  <path
    d="M470.871 136.935L475.812 133.397C476.914 135.178 477.908 136.683 480.07 136.561C482.143 136.445 483.399 135.524 483.201 132.229L481.856 109.81L488.162 109.457L489.513 131.966C489.922 138.794 486.283 142.117 480.693 142.43C475.649 142.713 472.558 140.144 470.873 136.932L470.871 136.935ZM493.129 134.976L498.076 131.58C499.567 133.813 501.425 135.405 504.533 135.23C507.148 135.084 508.731 133.625 508.618 131.74C508.482 129.48 506.723 128.776 503.765 127.617L502.146 127C497.475 125.231 494.304 122.857 493.982 117.487C493.685 112.542 497.062 108.573 502.693 108.257C506.702 108.032 509.666 109.333 511.973 113.028L507.262 116.601C506.059 114.635 504.841 113.901 503.038 114.003C501.191 114.106 500.092 115.396 500.188 116.997C500.306 118.976 501.525 119.71 504.302 120.78L505.92 121.398C511.419 123.497 514.59 125.777 514.921 131.288C515.277 137.223 511.012 140.723 505.016 141.059C499.151 141.388 495.201 138.666 493.137 134.967"
    fill="black" />
  <path
    d="M240.352 253.829L244.699 253.852C244.699 253.852 236.617 264.441 235.958 265.304C235.684 265.594 235.447 265.914 235.252 266.259C234.895 267.237 234.612 268.239 234.406 269.257L230.429 269.277C230.429 269.277 231.048 267.129 231.023 265.986C231 264.986 230.473 263.989 230.177 262.986C229.878 261.972 229.472 259.987 229.472 259.987H233.56L234.124 262.168L240.352 253.829Z"
    fill="white" />
  <path
    d="M232.121 256.062C232.923 256.53 233.415 259.11 233.415 259.11C233.415 259.11 229.218 259.169 226.934 259.169H224.96L222.563 269.257H218.897C218.897 269.257 221.179 258.294 221.717 256.306C221.891 255.663 222.913 255.773 224.637 255.773H227.39C229.168 255.773 231.247 255.553 232.121 256.062ZM215.055 260.976C215.099 260.48 214.962 259.986 214.667 259.578C214.238 258.939 213.842 258.79 212.714 258.756C209.529 258.659 209.591 260.941 209.591 260.941L215.055 260.976ZM218.509 258.362C218.976 259.99 218.086 263.815 218.086 263.815C218.086 263.815 213.44 263.74 210.896 263.815C210.105 263.839 209.158 263.732 208.922 264.088C208.59 264.587 209.043 265.355 209.426 265.679C209.868 266.053 210.728 266.095 211.037 266.132C213.102 266.387 217.425 266.198 217.425 266.198L216.676 269.405C216.676 269.405 210.567 269.701 207.512 268.995C206.924 268.874 206.385 268.589 205.961 268.178C205.857 268.069 205.766 267.92 205.667 267.792C205.503 267.573 205.365 267.337 205.256 267.087C204.558 265.289 205.338 261.844 206.102 259.998C206.19 259.784 206.302 259.512 206.419 259.282C206.566 258.995 206.69 258.67 206.807 258.498C206.885 258.38 206.984 258.303 207.065 258.191C207.16 258.062 207.262 257.937 207.371 257.817C207.667 257.509 207.998 257.235 208.358 256.999C209.631 256.077 211.935 255.362 214.702 255.635C215.744 255.739 217.318 256.099 218.086 257.135C218.287 257.523 218.429 257.936 218.509 258.362V258.362ZM201.696 255.761L205.25 255.74C205.25 255.74 203.269 264.827 202.26 269.257H198.171C195.313 269.257 192.768 269.6 191.685 267.622C190.635 265.701 191.637 262.542 192.108 260.396C192.441 258.877 193.142 255.773 193.142 255.773L196.824 255.74C196.824 255.74 195.784 260.574 195.351 262.986C195.196 263.851 194.876 264.665 195.21 265.304C195.528 265.912 195.971 265.956 197.325 265.986C197.753 265.995 199.158 265.986 199.158 265.986L201.696 255.761ZM185.059 262.305C185.43 261.026 185.974 259.64 185.904 258.487C185.847 257.942 185.65 257.419 185.33 256.967C185.01 256.514 184.577 256.146 184.072 255.897C183.246 255.632 182.362 255.594 181.515 255.786C180.669 255.979 179.894 256.395 179.278 256.988C178.278 258.035 177.94 259.258 177.586 260.941C177.322 262.192 177.107 263.511 177.586 264.486C178.434 266.209 181.081 265.833 183.931 265.849C184.354 264.754 184.703 263.522 185.059 262.305ZM189.994 257.26C190.399 260.115 188.841 263.266 187.769 266.006C188.863 266.101 189.822 265.991 189.891 266.07C189.962 266.172 189.157 269.34 188.876 269.349C188.008 269.371 185.131 269.394 183.931 269.394C180.015 269.394 176.352 269.641 174.484 267.758C173.731 266.907 173.242 265.867 173.074 264.759C172.919 263.202 173.062 261.63 173.497 260.123C173.799 258.885 174.273 257.693 174.907 256.579C176.553 253.802 179.414 251.74 184.212 252.217C185.298 252.348 186.349 252.672 187.315 253.171C187.372 253.203 187.574 253.359 187.621 253.386C188.749 254.08 189.777 255.737 189.994 257.26ZM172.67 255.777C172.432 256.82 172.196 258.002 171.946 259.033H167.998C168.304 257.891 168.538 256.755 168.845 255.761C170.108 255.761 171.282 255.777 172.67 255.777ZM167.857 259.987H171.664C171.167 262.651 170.181 266.948 169.409 269.94C168.925 271.811 168.602 273.177 167.293 274.165C167.176 274.254 167.109 274.212 167.011 274.302C166.77 274.524 165.655 274.782 165.038 274.847C163.914 274.908 162.788 274.905 161.665 274.836C161.988 273.695 162.353 272.325 162.641 271.302C165.648 271.654 165.724 268.906 166.307 266.259C166.644 264.729 167.664 260.601 167.857 259.987Z"
    fill="white" />
  <path
    d="M158.975 266.94L158.894 267.144C157.504 269.762 155.041 271.368 151.527 271.439C150.073 271.458 148.632 271.179 147.297 270.621C145.126 269.654 143.344 268.026 142.222 265.986C140.768 263.263 140.505 259.476 143.529 256.647C143.575 256.647 143.161 257.26 143.209 257.26L143.125 257.522C140.947 264.116 147.658 269.767 154.182 269.121C155.978 268.902 157.656 268.138 158.975 266.94Z"
    fill="#21609B" />
  <path
    d="M155.027 264.214C156.668 264.201 158.239 263.565 159.398 262.441C158.51 264.621 155.938 266.023 152.49 265.577C149.602 265.203 146.851 262.394 146.568 259.578C146.361 257.529 147.099 256.306 148.316 254.823C147.997 255.366 147.787 255.961 147.695 256.579C147.233 261.011 151.357 264.19 155.027 264.214Z"
    fill="#21609B" />
  <path
    d="M159.233 258.708C158.979 259.274 157.509 260.343 156.86 260.477C154.292 261.006 152.647 259.828 151.785 258.487C151.625 258.203 151.488 257.907 151.377 257.601C151.043 256.503 151.197 254.841 152.193 253.98C151.911 254.745 151.847 255.57 152.007 256.366C152.159 256.875 152.388 257.359 152.687 257.802C153.071 258.37 153.607 258.828 154.238 259.127C154.484 259.273 154.745 259.395 155.018 259.488C155.665 259.672 157.031 260.158 159.233 258.708Z"
    fill="#21609B" />
  <path
    d="M467.051 215.111C463.585 215.126 460.276 215.411 457.365 215.908C448.788 217.369 447.231 220.425 447.231 226.063V233.509H467.5V235.99H439.624C433.734 235.99 428.575 239.403 426.962 245.894C425.101 253.336 425.019 257.979 426.962 265.748C428.403 271.532 431.844 275.653 437.734 275.653H444.703V266.728C444.703 260.28 450.492 254.592 457.365 254.592H477.61C483.246 254.592 487.744 250.121 487.744 244.666V226.062C487.744 220.769 483.11 216.791 477.61 215.907C474.127 215.349 470.515 215.095 467.051 215.111ZM456.089 221.099C458.183 221.099 459.892 222.774 459.892 224.832C459.892 226.884 458.182 228.544 456.089 228.544C453.988 228.544 452.286 226.885 452.286 224.832C452.286 222.774 453.988 221.099 456.089 221.099Z"
    fill="url(#paint0_linear)" />
  <path
    d="M490.272 235.99V244.664C490.272 251.389 484.356 257.05 477.609 257.05H457.365C451.819 257.05 447.23 261.624 447.23 266.977V285.578C447.23 290.873 452.007 293.987 457.365 295.505C463.781 297.324 469.933 297.653 477.609 295.505C482.713 294.082 487.744 291.215 487.744 285.578V278.134H467.499V275.652H497.878C503.769 275.652 505.964 271.691 508.012 265.748C510.129 259.629 510.039 253.744 508.012 245.894C506.557 240.242 503.776 235.99 497.878 235.99H490.272ZM478.885 283.097C480.986 283.097 482.688 284.756 482.688 286.809C482.688 288.867 480.986 290.542 478.885 290.542C476.791 290.542 475.082 288.867 475.082 286.809C475.082 284.757 476.792 283.097 478.885 283.097Z"
    fill="url(#paint1_linear)" />
  <path opacity="0.444"
    d="M494.891 308.151C494.891 310.955 482.73 313.228 467.729 313.228C452.727 313.228 440.566 310.955 440.566 308.151C440.566 305.348 452.727 303.075 467.729 303.075C482.73 303.075 494.891 305.348 494.891 308.151Z"
    fill="url(#paint2_radial)" />
  <path
    d="M239.139 357.734V357.189L357.2 355.948L429.131 355.298H429.332L429.258 356.259L429.359 355.298H429.487V355.187L430.408 346.448L430.757 343.14L430.865 342.107L430.959 341.243L435.114 327.851L439.268 314.478L442.764 303.218L448.102 286.011C448.102 286.011 445.076 279.189 443.396 277.239C441.715 275.29 440.035 261.969 440.035 261.969C440.035 261.969 425.689 248.759 419.417 247.239C416.788 246.589 411.598 245.725 406.086 244.64C404.022 244.237 401.904 243.808 399.868 243.34C398.718 243.087 397.589 242.82 396.506 242.554C394.4 242.045 392.324 241.425 390.288 240.695C389.22 240.321 388.205 239.821 387.263 239.207C382.322 235.705 369.939 235.309 369.462 235.309C369.46 235.294 369.46 235.278 369.462 235.263V235.205C369.479 234.932 369.479 234.659 369.462 234.386C369.462 234.126 369.462 233.821 369.401 233.476C369.401 233.372 369.401 233.262 369.354 233.151C369.32 232.918 369.28 232.671 369.22 232.411C369.199 232.294 369.173 232.179 369.139 232.066C368.945 231.283 368.662 230.523 368.299 229.799C368.252 229.695 368.191 229.584 368.137 229.48C367.808 228.88 367.425 228.308 366.994 227.771C366.907 227.661 366.813 227.544 366.712 227.433C366.162 226.806 365.549 226.231 364.884 225.718C364.702 225.581 364.514 225.439 364.319 225.309C364.211 225.223 364.096 225.145 363.976 225.075L363.378 224.698L362.82 224.386C362.329 224.126 361.811 223.873 361.247 223.632C361.072 223.554 360.884 223.483 360.695 223.411C360.507 223.34 360.211 223.229 359.963 223.138H359.922L359.418 222.943C359.035 222.82 358.645 222.709 358.235 222.599L357.61 222.443L356.938 222.294L356.265 222.157C355.593 222.027 354.874 221.91 354.121 221.819L353.355 221.728L352.568 221.65L351.755 221.585L350.598 221.52L349.254 221.475C343.325 221.474 337.411 222.082 331.614 223.288C327.587 222.422 323.462 222.054 319.339 222.196H318.754L318.081 222.235H317.651L316.784 222.313C316.495 222.313 316.199 222.372 315.91 222.411C315.621 222.45 315.319 222.482 315.029 222.528L314.586 222.599C314.149 222.67 313.705 222.748 313.241 222.839C313.093 222.865 312.945 222.898 312.798 222.937C312.213 223.06 311.628 223.21 311.05 223.379C310.761 223.457 310.472 223.548 310.183 223.645C310.035 223.684 309.893 223.736 309.752 223.788L309.322 223.938L308.899 224.1L308.394 224.295C308.139 224.399 307.89 224.509 307.641 224.626C307.5 224.685 307.359 224.75 307.225 224.821C307.09 224.893 306.949 224.951 306.821 225.023C305.301 225.782 303.897 226.739 302.647 227.869L302.304 228.187L301.968 228.519C301.853 228.629 301.746 228.746 301.638 228.863C301.201 229.326 300.792 229.814 300.415 230.325C300.307 230.461 300.206 230.598 300.105 230.741C299.679 231.349 299.293 231.982 298.949 232.638C298.862 232.794 298.781 232.957 298.7 233.112C298.152 234.21 297.702 235.352 297.356 236.524C297.231 236.957 297.117 237.39 297.013 237.823C297.013 237.823 282.782 243.892 270.977 248.285C267.837 249.455 264.88 250.514 262.406 251.313C261.686 251.547 261.014 251.761 260.389 251.963C259.032 252.436 257.622 252.751 256.187 252.898C255.512 252.909 254.837 252.97 254.171 253.08C248.746 253.932 239.448 257.629 238.433 261.339C238.351 261.635 238.328 261.944 238.366 262.249C238.366 262.249 238.366 262.294 238.366 262.32C239.038 266.869 234.332 266.219 234.332 266.219C234.332 266.219 232.652 278.24 230.299 281.489C228.598 283.828 227.435 289.046 227.287 292.984C227.203 294.21 227.303 295.442 227.583 296.642C227.583 296.674 227.583 296.707 227.583 296.733C227.852 297.603 227.207 299.982 226.111 303.029C224.921 306.376 223.187 310.534 221.519 314.459C219.005 320.385 216.639 325.765 216.491 326.948C216.43 327.474 216.256 328.416 216.014 329.631C215.032 334.583 212.854 344.011 211.778 347.825C210.978 350.671 209.815 354.57 209.015 357.247C209.015 357.325 208.968 357.403 208.948 357.475L239.085 357.189V357.734H239.179H239.139Z"
    fill="#0F4C75" />
  <path
    d="M490.016 342.711C490.016 342.711 489.418 344.089 488.315 346.084C486.648 349.153 484.617 352.025 482.265 354.641L482.084 354.83H480.995L442.179 355.174H441.251L441.137 355.044L433.608 346.409L430.771 343.153L430.656 343.017L430.414 342.744L430.28 342.588L430.105 342.387L424.586 336.058L426.603 327.935L430.038 314.251L430.125 313.92L430.798 311.32L431.275 309.371L432.875 303.016L438.36 281.151L448.108 286.024L458.387 303.568L463.906 312.99H466.931C467.502 312.99 468.813 314.056 470.131 315.284C470.602 315.719 471.072 316.181 471.475 316.584C472.672 317.779 473.62 318.806 473.62 318.806C473.62 318.806 478.521 318.91 479.838 322.64C479.907 322.82 479.963 323.005 480.006 323.192C480.444 324.659 481.013 326.085 481.707 327.455C482.574 329.28 483.663 331.353 484.766 333.426C486.816 337.227 488.9 340.847 489.667 342.159L489.761 342.322L490.016 342.711Z"
    fill="#0F4C75" />
  <defs>
    <linearGradient id="paint0_linear" x1="423.536" y1="217.436" x2="468.817" y2="257.466"
      gradientUnits="userSpaceOnUse">
      <stop stop-color="#5A9FD4" />
      <stop offset="1" stop-color="#306998" />
    </linearGradient>
    <linearGradient id="paint1_linear" x1="487.812" y1="279.745" x2="471.852" y2="256.543"
      gradientUnits="userSpaceOnUse">
      <stop stop-color="#FFD43B" />
      <stop offset="1" stop-color="#FFE873" />
    </linearGradient>
    <radialGradient id="paint2_radial" cx="0" cy="0" r="1" gradientUnits="userSpaceOnUse"
      gradientTransform="translate(467.72 308.035) rotate(-90) scale(5.07533 23.151)">
      <stop stop-color="#B8B8B8" stop-opacity="0.498" />
      <stop offset="1" stop-color="#7F7F7F" stop-opacity="0" />
    </radialGradient>
  </defs>
</svg>