<svg width="16" height="18" viewBox="0 0 16 18" fill="none" xmlns="http://www.w3.org/2000/svg">
  <path d="M7.99018 18L1.45584 16.2024L0 0H16L14.5426 16.2L7.99018 18Z" fill="#264DE4" />
  <path d="M13.2945 15.1691L14.5401 1.32568H8.00098V16.622L13.2945 15.1691Z" fill="#2965F1" />
  <path
    d="M3.34188 7.33209L3.52153 9.31882H8.00422V7.33209H3.34188ZM2.98101 3.30994L3.16303 5.29681H8.00342V3.30994H2.97705H2.98101ZM8.00342 12.4929H7.99487L5.76374 11.8949L5.62101 10.3099H3.60659L3.88699 13.4301L7.99011 14.5625H7.99946L8.00342 12.4929Z"
    fill="#EBEBEB" />
  <path
    d="M12.6494 7.33209L13.0111 3.30994H7.99023V5.29681H10.813L10.631 7.32886H7.99023V9.31574H10.4569L10.2206 11.8949L7.99023 12.4944V14.5617L12.0964 13.4323L12.1263 13.0963L12.599 7.86437L12.6478 7.33055L12.6494 7.33209Z"
    fill="white" />
</svg>