<svg width="32" height="11" viewBox="0 0 32 11" fill="none" xmlns="http://www.w3.org/2000/svg">
  <path fill-rule="evenodd" clip-rule="evenodd"
    d="M1.75504 5.62759C1.74948 6.57613 2.52499 7.14159 3.76256 6.8845V4.37068C2.50935 4.02839 1.76028 4.72089 1.75504 5.62759ZM3.80042 0.735774H5.50491V7.97156C3.87109 8.21112 2.30631 8.36306 1.18688 7.80168C-0.254496 7.07893 -0.370371 4.78214 0.770188 3.75919C1.34847 3.24059 2.51266 2.87548 3.76256 3.11374V0.837708C3.75929 0.789471 3.75627 0.741451 3.80042 0.735774"
    fill="#fff" />
  <path fill-rule="evenodd" clip-rule="evenodd" d="M8.26894 2.33252H6.56445V0.735892H8.26894V2.33252Z" fill="#fff" />
  <path fill-rule="evenodd" clip-rule="evenodd"
    d="M28.7229 6.9522C30.581 7.59982 30.7866 3.96933 28.9123 4.30246C27.7483 4.50937 27.7857 6.62557 28.7229 6.9522ZM28.7987 3.04556C30.2177 2.90949 31.2882 3.47108 31.7153 4.33645C32.444 5.81296 31.6752 7.50718 30.5032 8.00532C29.8958 8.26349 29.2597 8.28808 28.685 8.2431C26.9089 8.10418 25.7887 6.48075 26.4124 4.67614C26.51 4.3937 26.6197 4.22092 26.6776 4.13262C27.0637 3.54387 27.7155 3.14944 28.7987 3.04556"
    fill="#fff" />
  <path fill-rule="evenodd" clip-rule="evenodd"
    d="M10.6179 6.37466C10.1464 7.08523 11.3309 7.25547 12.095 7.0541V6.00099C11.5079 6.0745 10.8396 6.04029 10.6179 6.37466ZM13.6101 8.03923C12.2022 8.11188 10.0624 8.54203 9.29211 7.69955C8.83958 7.20452 8.88824 6.26036 9.29211 5.79716C9.81403 5.19864 10.9533 5.06811 11.9814 4.98187C12.0747 4.77576 12.0118 4.44041 11.9057 4.30239C10.9653 4.08757 10.0309 4.42045 9.36791 4.67606V3.48714C10.3693 3.07448 12.6889 2.63999 13.3829 3.58903C13.7474 4.08749 13.6101 4.95681 13.6101 5.72918V8.03923Z"
    fill="#fff" />
  <path fill-rule="evenodd" clip-rule="evenodd"
    d="M19.5959 8.10791H17.8914V6.13757C17.8914 5.48883 18.0084 4.66624 17.6262 4.40506C17.3269 4.2004 16.6168 4.30309 16.187 4.40506V8.10791H14.4824V3.38594C16.2248 2.98001 19.37 2.54479 19.5959 4.50696C19.7073 5.47437 19.5134 6.92578 19.5959 8.10791Z"
    fill="#fff" />
  <path fill-rule="evenodd" clip-rule="evenodd"
    d="M22.133 6.47692C22.4198 6.89312 23.1965 7.04918 23.8375 6.78265C23.8023 5.98761 23.79 5.17203 23.7996 4.33674C22.3265 3.98769 21.4487 5.48412 22.133 6.47692ZM26.4132 3.24971C26.2615 3.65719 26.0394 4.00154 25.845 4.37077C25.6694 4.40606 25.5171 4.30814 25.4283 4.37077C25.3895 6.0267 25.8216 8.27156 25.0874 9.46634C24.6454 10.1857 23.8317 10.6472 22.5875 10.7233C21.6812 10.7787 20.9778 10.6459 20.3149 10.4176V8.99077C21.0924 9.39793 23.0571 9.72987 23.6102 8.88884C23.773 8.6414 23.7626 8.38564 23.8375 8.0056C23.4814 8.02238 23.1357 8.17027 22.7012 8.17548C20.9148 8.19674 19.8096 6.92107 20.2391 5.15203C20.4052 4.46775 20.8523 3.91678 21.4512 3.58939C22.6952 2.90941 24.6074 2.96105 26.4132 3.24971"
    fill="#fff" />
  <path fill-rule="evenodd" clip-rule="evenodd"
    d="M8.27031 3.14071C8.26837 4.2664 8.26865 5.07529 8.26853 6.44285C8.19612 7.78679 8.21297 8.85701 7.66428 9.50007C7.55607 9.62688 7.32626 9.81187 7.13398 9.94172C6.97251 10.0507 6.66476 10.2718 6.49006 10.2814C6.31395 10.2911 5.8615 10.0622 5.65672 9.97567C5.38784 9.8621 5.13928 9.71128 4.86133 9.63599C5.50968 9.27566 6.12514 9.00551 6.3764 8.27715C6.59493 7.64371 6.56582 6.72579 6.56582 5.83124C6.56582 4.94794 6.57021 3.921 6.57021 3.14111L8.27031 3.14071Z"
    fill="#fff" />
</svg>