<svg width="11" height="18" viewBox="0 0 11 18" fill="none" xmlns="http://www.w3.org/2000/svg">
  <path
    d="M2.74996 18C3.47929 18 4.17875 17.6839 4.69447 17.1213C5.21019 16.5587 5.49992 15.7957 5.49992 15V12H2.74996C2.02062 12 1.32116 12.3161 0.805444 12.8787C0.289727 13.4413 0 14.2044 0 15C0 15.7957 0.289727 16.5587 0.805444 17.1213C1.32116 17.6839 2.02062 18 2.74996 18V18Z"
    fill="#0ACF83" />
  <path
    d="M0 9C0 8.20435 0.289727 7.44129 0.805444 6.87868C1.32116 6.31607 2.02062 6 2.74996 6H5.49992V12H2.74996C2.02062 12 1.32116 11.6839 0.805444 11.1213C0.289727 10.5587 0 9.79565 0 9V9Z"
    fill="#A259FF" />
  <path
    d="M0 3C-2.22461e-07 2.20476 0.289432 1.44205 0.804684 0.879508C1.31994 0.316966 2.01885 0.000621284 2.74781 0L5.49777 0V6H2.74996C2.02062 6 1.32116 5.68393 0.805444 5.12132C0.289727 4.55871 0 3.79565 0 3V3Z"
    fill="#F24E1E" />
  <path
    d="M5.5 0H8.24996C8.97929 0 9.67876 0.316071 10.1945 0.87868C10.7102 1.44129 10.9999 2.20435 10.9999 3C10.9999 3.79565 10.7102 4.55871 10.1945 5.12132C9.67876 5.68393 8.97929 6 8.24996 6H5.5V0Z"
    fill="#FF7262" />
  <path
    d="M10.9999 9C10.9999 9.79565 10.7102 10.5587 10.1945 11.1213C9.67876 11.6839 8.97929 12 8.24996 12C7.52062 12 6.82116 11.6839 6.30544 11.1213C5.78973 10.5587 5.5 9.79565 5.5 9C5.5 8.20435 5.78973 7.44129 6.30544 6.87868C6.82116 6.31607 7.52062 6 8.24996 6C8.97929 6 9.67876 6.31607 10.1945 6.87868C10.7102 7.44129 10.9999 8.20435 10.9999 9V9Z"
    fill="#1ABCFE" />
</svg>