<svg width="18" height="16" viewBox="0 0 18 16" fill="none" xmlns="http://www.w3.org/2000/svg">
  <path
    d="M5.37898 14.2472C4.69348 13.7098 3.96196 13.1948 3.46219 12.4692C2.41028 11.1896 1.60061 9.70845 1.04705 8.15163C0.712304 7.13924 0.59778 6.0539 0.166046 5.0808C-0.284991 4.37381 0.24373 3.6015 1.0208 3.3769C1.3665 3.31052 1.97478 2.98529 1.24055 3.21799C0.582125 3.69908 0.518683 2.78087 1.19371 2.7227C1.6544 2.66183 1.82401 2.28617 1.66629 1.94804C1.17158 1.62645 2.86544 1.27366 2.01304 0.793972C1.12568 -0.160363 3.2548 -0.344029 2.72938 0.739904C2.60379 1.57332 4.21761 0.586849 3.84284 1.54939C4.22361 2.01173 5.26823 1.65483 5.24198 2.30306C5.79648 2.34106 5.9868 2.80562 6.50681 2.84139C7.0466 3.08416 8.02412 3.27522 8.2075 3.88087C7.67242 4.30286 6.43372 3.0091 6.37392 4.17736C6.53577 5.90354 6.49445 7.68167 7.12805 9.3254C7.42772 10.3206 8.15465 11.1039 8.81073 11.8791C9.43879 12.6382 10.2894 13.1729 11.1565 13.6228C11.917 13.9801 12.7368 14.2169 13.5658 14.3659C13.9018 14.1097 14.4954 13.1573 15.0195 13.5586C15.0449 14.0104 13.9792 14.5024 14.9695 14.4524C15.5516 14.2775 15.9548 14.9005 16.4339 14.3383C16.8752 14.8593 18.2684 14.0057 17.9543 15.0705C17.5296 15.3436 16.9102 15.1785 16.4849 15.5543C15.7838 15.2052 15.2255 15.8663 14.449 15.7829C13.587 15.9368 12.7096 15.9987 11.8357 16C10.4016 15.8873 8.93726 15.8397 7.57308 15.3422C6.80436 15.1196 6.05448 14.6834 5.37898 14.2472ZM6.59003 14.7704C7.34038 15.0934 8.07426 15.4342 8.89677 15.5373C10.2016 15.7178 11.5492 15.9964 12.8586 15.7426C12.266 15.476 11.6531 15.8461 11.0627 15.552C10.3548 15.7036 9.59474 15.513 8.87464 15.4191C8.05625 15.0559 7.17266 14.8062 6.40618 14.3342C5.44796 13.9857 6.90135 14.7814 7.16018 14.846C7.75882 15.1845 6.50175 14.6724 6.32425 14.5317C5.82272 14.2513 5.75881 14.3099 6.2747 14.5945C6.37852 14.655 6.48115 14.7187 6.59003 14.7704ZM5.16194 13.7648C5.88934 14.0333 5.15876 13.2553 4.8259 13.3003C4.6783 13.045 4.26175 12.8838 4.55554 12.7468C4.02729 12.9296 4.00198 12.0518 3.75374 12.1774C3.19466 12.0015 3.53623 11.3783 2.87003 10.9954C2.8093 10.5922 2.20842 10.2427 2.01716 9.63468C1.93253 9.32317 1.33801 8.42936 1.70313 9.26125C2.01386 10.0621 2.56059 10.7484 3.01575 11.4333C3.36886 12.0857 3.78635 12.7679 4.42959 13.1748C4.64664 13.3822 4.85579 13.6997 5.16194 13.7648ZM3.0673 11.4727C3.09249 11.3632 3.20019 11.7095 3.0673 11.4727V11.4727ZM6.03329 14.0864C6.19419 14.0145 5.80154 13.9957 6.03329 14.0864V14.0864ZM6.42771 14.2298C6.38687 14.0319 6.24751 14.3407 6.42771 14.2298V14.2298ZM6.92207 14.4351C7.157 14.2119 6.55931 14.2943 6.92207 14.4351V14.4351ZM7.76894 14.9055C7.91195 14.6952 7.31143 14.8263 7.76894 14.9055V14.9055ZM6.14276 13.7758C6.50775 13.5403 5.67053 13.7726 6.14276 13.7758V13.7758ZM6.51328 13.96C6.50269 13.8358 6.38134 14.0158 6.51328 13.96V13.96ZM8.36569 15.1122C8.6636 15.2996 10.1051 15.5227 9.20256 15.1891C9.05119 15.2208 7.52894 14.7598 8.36569 15.1122ZM5.42501 12.8297C5.39605 12.7052 4.96243 12.6918 5.42501 12.8297V12.8297ZM6.28706 13.331C6.51187 13.1748 5.82131 13.2104 6.28706 13.331V13.331ZM7.01258 13.774C7.33485 13.653 6.49033 13.6526 7.01258 13.774V13.774ZM5.07366 12.449C5.42312 12.7161 6.48339 12.4834 5.60886 12.2896C5.21114 12.0784 4.3146 11.9337 4.92571 12.417L5.07366 12.449ZM7.50411 13.927C7.64982 13.68 6.89346 13.7858 7.50411 13.927V13.927ZM6.76564 13.3424C7.61993 13.5829 6.04706 12.8036 6.55472 13.2535L6.66736 13.3044L6.76564 13.3424ZM8.24622 14.195C9.05543 14.2027 7.51517 14.0837 8.24622 14.195V14.195ZM4.76246 11.9826C4.73068 11.8323 4.56295 11.995 4.76246 11.9826V11.9826ZM9.61499 14.96C9.63653 14.6889 9.35098 15.1621 9.61499 14.96V14.96ZM6.14358 12.8251C6.09438 12.6822 5.89075 12.8192 6.14358 12.8251V12.8251ZM4.8392 11.8883C5.30365 11.8604 4.2029 11.6844 4.8392 11.8883V11.8883ZM3.29388 10.8931C3.23597 10.671 2.78858 10.4941 3.29388 10.8931V10.8931ZM7.3505 13.4584C7.26552 13.3616 7.31049 13.4793 7.3505 13.4584V13.4584ZM9.87511 15.0023C9.86734 14.8543 9.73763 15.0581 9.87511 15.0023V15.0023ZM7.1271 13.2284C7.17266 13.0378 6.7308 13.1705 7.1271 13.2284V13.2284ZM5.2461 12.0404C5.59191 12.0037 4.69207 11.8076 5.2461 12.0404V12.0404ZM8.42784 14.0104C8.96668 13.7978 7.90277 13.9068 8.42784 14.0104V14.0104ZM6.77305 12.8912C7.3937 12.9708 6.03423 12.4701 6.63652 12.8462L6.77305 12.8912ZM8.93031 14.2128C9.51011 13.8679 9.31885 15.0215 9.91384 14.3104C10.5005 13.8835 9.40712 14.8382 10.1299 14.3865C10.6531 14.0378 11.4255 14.5519 11.9134 14.7191C12.2641 14.7021 12.6053 15.0215 12.9653 14.8272C13.6577 14.6412 11.6109 14.5514 12.1474 14.222C11.5138 14.4058 11.0458 14.003 10.734 13.5985C10.0232 13.4349 9.20162 13.073 8.84662 12.4458C8.70185 12.2108 9.05543 12.4793 8.72162 12.0945C8.29354 11.7151 8.07979 11.2839 7.79236 10.8226C7.4489 10.6403 7.40841 10.1029 7.37393 10.8048C7.37675 10.3617 6.95926 10.0635 6.85721 10.1872C6.85533 9.76064 7.30413 9.97457 6.9901 9.65896C6.92254 9.2168 6.69996 8.75599 6.63322 8.2566C6.52941 8.01605 6.61851 7.50071 6.27835 8.04537C6.15464 8.62123 6.23739 7.33803 6.43007 7.76084C6.68289 7.32935 6.33897 7.38014 6.3252 7.43972C6.48986 7.07555 6.4296 6.55869 6.282 6.75572C6.36981 6.36951 6.42089 5.3346 6.151 5.51826C6.3146 5.11422 6.46138 3.67011 5.75045 4.22088C5.46267 4.22498 4.96385 4.32491 4.72844 4.44172C5.46726 4.84764 4.65393 4.58832 4.35273 4.5237C4.31366 4.89936 4.01575 4.73716 3.64334 4.74079C4.23833 4.8141 3.35367 5.34691 3.01304 5.13991C2.56977 5.35067 3.3951 5.8775 3.02175 6.04053C3.06777 6.28565 2.34308 5.95174 2.39969 6.51893C1.96972 6.33831 2.34084 7.19143 2.556 6.9028C3.28752 7.1003 3.07095 7.54973 3.08931 7.97711C2.9702 8.22587 2.5008 7.3921 2.98491 7.43057C2.60285 6.81249 2.56247 7.20703 2.24515 7.49426C2.17158 7.5149 3.05435 7.90287 2.50033 8.09439C2.98773 8.16957 3.00198 8.59473 3.10132 8.86366C3.39416 9.16777 3.3339 8.52776 3.68477 8.89345C3.46266 8.56763 2.50951 7.9757 3.27693 8.16547C3.27281 7.8379 3.13804 7.57354 3.37345 7.57987C3.60662 7.15976 3.12933 8.61619 3.6544 8.08208C3.79965 8.01886 3.83602 7.6615 4.0972 8.11597C4.47644 8.488 4.23421 8.75728 3.69901 8.41646C3.79459 8.74039 4.41488 8.8558 4.29812 9.36211C4.42171 9.80744 4.59461 9.64336 4.74539 9.61767C4.86356 10.0502 4.93077 9.73226 4.9363 9.52607C5.47738 9.6416 5.3505 9.96037 5.52011 10.1831C5.89299 10.3507 4.98633 9.04638 5.62639 9.7909C6.29989 10.397 5.87922 10.6499 5.2747 10.5528C5.65723 10.522 5.78035 11.0682 6.25905 11.049C6.69537 11.256 6.99104 12.0505 6.2388 11.7196C5.97809 11.4851 5.05436 11.196 5.80895 11.6417C6.50505 11.9633 7.0586 12.1553 7.73033 12.559C8.21079 12.9008 8.41854 13.2924 8.60063 13.3699C8.19655 13.5623 7.38323 13.2164 7.98728 13.1106C7.61027 13.0423 7.18643 12.8522 7.5473 13.32C7.85439 13.5756 8.63464 13.5485 8.77494 13.5774C8.6563 13.8376 8.45267 13.8583 8.77953 13.8785C8.41489 14.0722 8.89677 14.1025 8.93031 14.2128ZM8.18455 12.1142C7.96244 11.8828 7.905 11.4499 8.145 11.8264C8.26823 11.8758 8.53907 12.5343 8.18455 12.1142ZM10.6136 13.6516C10.752 13.6425 10.6177 13.7565 10.6136 13.6516V13.6516ZM7.83426 11.547C7.82544 11.1974 7.91418 11.8167 7.83426 11.547V11.547ZM7.59285 11.2235C7.31331 10.6861 7.94455 11.3756 7.59285 11.2235V11.2235ZM4.66676 9.2114C4.83096 9.16777 4.74774 9.49077 4.66676 9.2114V9.2114ZM6.99563 10.4689C7.09627 10.0918 7.1138 10.7851 6.99563 10.4689V10.4689ZM5.3505 9.32904C5.23468 9.12109 5.59285 9.52431 5.3505 9.32904V9.32904ZM6.76199 9.77987C6.49763 9.18982 6.94961 9.45734 6.82084 9.87652L6.76199 9.77987ZM4.32754 8.16218C4.20937 7.96843 4.01398 7.40031 4.07696 7.22673C4.13345 7.50938 4.67971 8.44261 4.34449 7.61342C3.97444 6.91839 4.78729 7.83872 4.87098 8.01241C4.91006 8.1847 4.6424 7.96527 4.82354 8.36978C4.49303 7.90932 4.62863 8.62405 4.32754 8.16218ZM3.57531 7.64543C3.60614 7.19507 3.74727 7.95424 3.57531 7.64543V7.64543ZM3.9137 7.76178C4.07507 7.42189 4.18724 8.23549 3.9137 7.76178V7.76178ZM3.09943 7.1342C2.81942 6.85647 2.61662 6.60091 3.11273 6.96191C3.30353 6.96918 2.68795 6.38053 3.15876 6.77496C3.65346 6.8648 3.40287 7.58363 3.09943 7.1342ZM3.52705 7.12317C3.68983 6.96238 3.61344 7.28127 3.52705 7.12317V7.12317ZM3.79047 7.20703C3.54353 6.74657 4.08979 7.40031 3.79047 7.20703V7.20703ZM3.26728 6.70904C2.45301 5.98646 4.29023 7.08646 3.40016 6.84275L3.26728 6.70904ZM5.60062 8.05956C5.24798 7.84927 5.50681 6.57757 5.62734 7.44711C5.96985 7.33663 5.60839 7.89654 5.86357 7.89102C5.82366 8.24417 5.70914 8.37118 5.60062 8.05956ZM6.46361 8.5681C6.4981 8.1847 6.53624 8.83023 6.46361 8.5681V8.5681ZM6.31378 8.42009C6.35239 8.2566 6.31743 8.61302 6.31378 8.42009V8.42009ZM3.42677 6.47166C2.90358 5.75236 4.94725 7.19917 3.76198 6.65404C3.63828 6.62155 3.48891 6.61006 3.42677 6.47166ZM5.08885 7.34953C5.03929 6.74388 5.19925 7.44981 5.08885 7.34953V7.34953ZM6.3505 8.1562C6.44796 7.81127 6.35792 8.38444 6.3505 8.1562V8.1562ZM3.50727 6.19722C3.81813 6.13084 4.79553 6.74106 3.89805 6.37138C3.79835 6.26137 3.58543 6.31134 3.50727 6.19722ZM6.17713 7.52311C6.21032 6.90373 6.36298 7.15343 6.17854 7.61201L6.17713 7.52311ZM3.73856 5.98153C3.86544 5.79634 3.40193 5.14448 3.80518 5.74779C3.9795 5.88571 4.30954 5.97872 4.0181 6.03689C4.47644 6.43964 3.9064 6.14597 3.73856 5.98153ZM6.04518 7.32982C6.13263 6.62425 6.12251 7.74301 6.04518 7.32982V7.32982ZM3.47373 5.33002C3.57072 5.28874 3.52516 5.45868 3.47373 5.33002V5.33002ZM4.07554 5.68692C4.23044 5.36298 4.36109 6.04792 4.07554 5.68692V5.68692ZM5.77258 6.62741C5.77117 6.50333 5.80471 6.80838 5.77258 6.62741V6.62741ZM5.67418 6.41079C5.43878 5.83165 5.89346 6.71725 5.67418 6.41079V6.41079ZM5.52976 6.03091C5.49033 5.79177 5.66406 6.33151 5.52976 6.03091V6.03091ZM5.76517 5.64974C5.60333 5.36615 5.96938 4.39903 6.01034 4.99882C5.83967 5.46607 5.96114 5.72726 6.07967 5.1005C6.29954 4.60756 6.03235 6.07407 5.76517 5.64974ZM6.00705 4.21173C6.07743 4.12552 6.0227 4.31564 6.00705 4.21173V4.21173ZM5.60297 12.1435C5.50728 12.0601 5.61533 12.1961 5.60297 12.1435V12.1435ZM6.43513 12.5627C6.89806 12.6813 6.89582 12.4911 6.47739 12.4344C6.25257 12.2259 5.54224 12.0046 6.17807 12.4087C6.21997 12.515 6.35286 12.5122 6.43513 12.5627ZM4.79188 11.475C5.04659 11.6647 5.75234 12.0119 5.15511 11.5475C5.3565 11.3142 4.76975 11.1901 4.96432 11.0339C4.46914 10.7319 4.57343 10.759 4.92065 10.7686C4.32566 10.5033 5.00657 10.5235 4.97444 10.3874C4.74504 10.3425 3.83461 9.98418 4.37027 10.4167C3.8259 10.1404 4.24056 10.5198 4.07601 10.4799C3.51916 10.3288 4.57166 10.9024 3.98774 10.7599C4.30683 11.0118 4.84708 11.4059 4.12239 11.0265C4.02728 11.1635 4.64111 11.3711 4.79188 11.475ZM5.66218 11.9734C6.72021 12.313 5.14311 11.5579 5.66218 11.9734V11.9734ZM10.1175 14.6627C10.1312 14.4534 9.97304 14.8414 10.1175 14.6627V14.6627ZM10.5754 14.8547C10.8196 14.6192 10.5856 15.2304 10.98 14.797C10.9841 14.4868 10.9681 14.3036 10.5267 14.6806C10.4048 14.748 10.3506 15.0333 10.5754 14.8547ZM3.30636 10.3059C3.23138 10.0122 2.78081 10.0135 3.30636 10.3059V10.3059ZM3.79506 10.6251C3.61344 10.3251 3.14722 10.3535 3.79506 10.6251V10.6251ZM6.5772 12.2969C6.84897 12.5374 7.82461 12.4733 6.90688 12.3267C6.77117 12.1265 6.04436 12.1746 6.5772 12.2969ZM10.4011 14.6504C10.8191 14.3008 9.99611 14.8062 10.4011 14.6504V14.6504ZM11.2706 15.2455C11.2733 15.1333 11.0904 15.2945 11.2706 15.2455V15.2455ZM11.272 15.0884C11.7349 14.6 10.8237 15.1172 11.272 15.0884V15.0884ZM2.10355 9.30253C1.70913 8.7418 1.85849 8.48976 1.47784 8.03165C1.40557 7.68121 0.824946 6.88673 1.17758 7.72835C1.50032 8.22083 1.59602 8.98317 2.10355 9.30253ZM11.1266 14.9331C11.9787 14.3847 10.7773 14.6944 11.1266 14.9331V14.9331ZM11.7768 15.1869C12.2035 14.8221 11.5069 15.1108 11.7768 15.1869V15.1869ZM3.16146 9.68593C3.2834 9.50496 2.84614 9.66259 3.16146 9.68593V9.68593ZM11.6411 15.0136C12.054 14.7485 11.546 14.7892 11.5663 15.0379L11.6411 15.0136ZM6.03741 11.4942C6.02317 11.3146 5.81907 11.5093 6.03741 11.4942V11.4942ZM6.38358 11.6926C6.27329 11.4709 6.21444 11.7275 6.38358 11.6926V11.6926ZM12.3037 15.1929C12.8329 14.8125 11.9833 15.1199 12.1929 15.2652L12.3037 15.1929ZM12.101 15.0953C12.5323 14.7356 11.6462 15.2547 12.101 15.0953V15.0953ZM13.1363 15.782C13.4256 15.589 12.7846 15.7197 13.1363 15.782V15.782ZM3.42677 9.55539C3.81436 9.64195 4.97668 10.5069 4.29117 9.61544C3.93995 9.51188 4.15052 8.65653 3.79235 8.80771C4.03282 9.20812 3.98997 9.37806 3.48515 9.12614C2.8512 8.81733 3.12886 9.27872 3.25304 9.40609C3.08378 9.44456 3.47644 9.55223 3.42677 9.55539ZM1.65993 8.165C1.72926 7.87859 1.02033 6.59082 1.32518 7.51947C1.435 7.71416 1.42358 8.0829 1.65993 8.165ZM4.90311 10.1574C4.70313 9.9911 4.89346 10.1336 4.90311 10.1574V10.1574ZM5.39464 10.2715C5.39464 9.96823 4.8512 10.1483 5.39464 10.2715V10.2715ZM9.65677 12.9484C9.57544 12.7413 9.33544 12.9438 9.65677 12.9484V12.9484ZM9.86134 13.0972C9.83097 12.9814 9.74317 13.1198 9.86134 13.0972V13.0972ZM11.5506 14.1578C11.7129 14.0383 11.3478 14.1423 11.5506 14.1578V14.1578ZM2.54223 8.38948C3.00704 8.21027 2.04423 8.26164 2.54223 8.38948V8.38948ZM9.28154 12.6199C9.27612 12.3202 8.98504 12.6946 9.28154 12.6199V12.6199ZM2.35873 7.96292C2.65711 7.86264 2.08236 7.89701 2.35873 7.96292V7.96292ZM3.22491 8.38115C3.21984 8.28275 3.13345 8.4188 3.22491 8.38115V8.38115ZM13.793 14.8387C14.1768 14.7613 15.0518 15.0333 15.1929 14.7374C14.7267 14.7259 13.5805 14.4094 13.5263 14.8125L13.6283 14.8286L13.793 14.8387ZM3.50033 8.45035C3.50727 8.14659 3.26269 8.43897 3.50033 8.45035V8.45035ZM1.22266 6.87582C1.1192 6.29714 0.829065 6.78821 1.22266 6.87582V6.87582ZM1.76563 7.01187C1.77257 6.82586 1.26857 6.84462 1.76563 7.01187V7.01187ZM2.07601 7.16399C1.98632 7.0915 2.00609 7.25511 2.07601 7.16399V7.16399ZM4.02952 8.41235C4.12156 8.32802 3.81165 8.35007 4.02952 8.41235V8.41235ZM1.86956 6.82128C1.81671 6.38417 1.24008 6.75572 1.86956 6.82128V6.82128ZM0.755501 6.10105C0.739847 5.89944 0.646979 6.17705 0.755501 6.10105V6.10105ZM0.921462 5.97649C0.894391 5.73723 0.778924 6.00663 0.921462 5.97649V5.97649ZM1.83648 6.52069C2.22361 6.36951 1.13156 6.2073 1.75739 6.4923L1.83648 6.52069ZM14.0868 14.0607C14.3345 13.8345 13.7722 13.9907 14.0868 14.0607V14.0607ZM15.5667 14.8249C15.6661 14.5327 15.3166 14.8634 15.5667 14.8249V14.8249ZM1.93017 6.04287C1.97114 5.75975 1.62309 6.09917 1.93017 6.04287V6.04287ZM0.627676 5.17333C0.557761 4.77387 0.567412 4.07239 1.23643 4.30931C0.343542 4.48617 1.85485 5.41564 1.66405 4.68168C2.03964 4.7001 2.39875 4.46049 2.20148 4.82371C2.94171 4.74267 3.45443 4.10312 4.16935 4.19296C4.72609 4.11919 5.33484 4.06372 5.93489 3.84017C6.42819 3.80487 6.90312 3.27569 6.63287 2.96184C5.9602 2.90507 5.25575 2.98893 4.51234 3.13647C3.68842 3.30689 2.93995 3.63117 2.10861 3.77051C1.29799 3.87911 2.2714 4.06923 2.03917 4.1118C1.61661 4.25794 2.54352 4.35646 1.98444 4.5108C1.63921 4.44536 1.27963 4.32713 1.42723 3.96426C0.651099 4.06512 -0.0312239 4.38578 0.582125 5.17286L0.627676 5.17333ZM2.49856 4.22404C2.68018 3.55611 3.47326 4.77387 2.79647 4.31294C2.71596 4.25242 2.5826 4.2034 2.49856 4.22404ZM2.53387 3.90011C2.79647 3.70541 2.67323 4.00965 2.53387 3.90011V3.90011ZM2.86721 3.90562C2.89122 3.59822 3.63098 4.06829 2.98915 4.0161L2.86721 3.90562ZM3.3233 3.72289C3.49021 3.52855 3.37168 3.89506 3.3233 3.72289V3.72289ZM3.44018 3.64501C3.71784 3.31287 5.01116 3.43285 4.06448 3.61241C3.81071 3.42182 3.61627 3.72465 3.44018 3.64501ZM5.12839 3.3857C5.08661 2.47804 5.9675 3.70776 5.12839 3.3857V3.3857ZM5.60756 3.38289C5.7827 2.92571 6.28753 3.19922 5.68889 3.29082C5.70172 3.33984 5.671 3.52726 5.60756 3.38289ZM1.74126 5.80831C2.26445 5.48894 1.18582 5.53117 1.74126 5.80831V5.80831ZM2.12839 5.91503C2.31188 5.72081 1.72926 5.83622 2.12839 5.91503V5.91503ZM0.9882 5.10918C1.28705 4.88013 0.63415 5.02216 0.9882 5.10918V5.10918ZM16.4403 14.7415C16.449 14.4758 16.2118 14.8611 16.4403 14.7415V14.7415ZM14.8702 13.6736C14.9148 13.368 14.6683 13.7002 14.8702 13.6736V13.6736ZM16.8721 14.8446C17.29 14.846 18.1387 14.7149 17.2293 14.7154C17.0863 14.7374 16.3976 14.7329 16.8721 14.8446ZM2.46866 5.72762C2.80706 5.70475 2.99786 5.35606 2.40287 5.37577C1.48102 5.281 3.2162 5.69055 2.2847 5.57327C2.1597 5.65572 2.46125 5.7506 2.46866 5.72762ZM2.76657 5.87797C2.73114 5.6617 2.6617 5.99291 2.76657 5.87797V5.87797ZM3.12015 4.93877C3.26681 4.75733 2.91688 4.89021 3.12015 4.93877V4.93877ZM1.99456 3.06446C2.59873 2.86015 3.42453 2.63016 3.70961 3.16533C3.41947 2.81758 3.59237 2.47488 3.86639 2.98389C4.25398 3.49841 4.44795 2.74979 4.19595 2.57703C4.48338 2.93252 4.80977 3.1007 4.38816 2.59955C4.84661 2.05019 3.4709 2.67144 3.15829 2.66499C3.00798 2.73231 1.6052 3.02142 1.99456 3.06446ZM2.34861 2.38926C2.69301 2.13042 3.53988 2.54361 2.99644 2.13171C2.94312 2.08503 1.80659 2.44415 2.34861 2.38926ZM3.60426 2.44098C4.00704 2.45107 3.43053 1.90124 3.91052 2.15047C3.8319 1.89397 3.35144 1.84589 3.1165 1.74326C2.98361 1.97783 3.38675 2.44415 3.60426 2.44098ZM2.56883 1.30521C2.70819 1.11697 2.32424 1.40103 2.56883 1.30521V1.30521ZM3.08201 1.42754C3.73162 1.34192 2.91641 1.14899 2.95089 1.42073L3.08201 1.42754ZM2.1238 0.680793C1.66629 0.0856973 2.98409 0.780719 2.51916 0.157592C2.12792 -0.152505 1.75233 0.507214 2.1238 0.680793ZM7.99281 3.83056C8.20255 3.46029 7.1271 3.33116 7.85168 3.69943C7.9183 3.72148 7.90324 3.85612 7.99281 3.83056Z"
    fill="black" />
</svg>