<svg width="59" height="57" viewBox="0 0 59 57" fill="none" xmlns="http://www.w3.org/2000/svg">
  <path fill-rule="evenodd" clip-rule="evenodd"
    d="M29.5814 0.50013C13.5921 0.50013 0.625 13.4654 0.625 29.4601C0.625 42.2548 8.92189 53.1081 20.4294 56.9375C21.8783 57.2041 22.4063 56.3099 22.4063 55.5419C22.4063 54.8539 22.3815 53.0334 22.3672 50.6174C14.3121 52.3668 12.6126 46.7348 12.6126 46.7348C11.2952 43.389 9.39657 42.4983 9.39657 42.4983C6.76724 40.7028 9.59568 40.7383 9.59568 40.7383C12.5023 40.9428 14.0312 43.7232 14.0312 43.7232C16.6143 48.1481 20.8099 46.8699 22.4597 46.1286C22.7228 44.2583 23.4712 42.9819 24.2979 42.2583C17.8677 41.5277 11.1068 39.0423 11.1068 27.9455C11.1068 24.7846 12.2357 22.1979 14.0881 20.1748C13.7895 19.4423 12.7957 16.4966 14.3726 12.5108C14.3726 12.5108 16.8028 11.7321 22.3352 15.4797C24.6446 14.8361 27.1228 14.5161 29.585 14.5037C32.0454 14.5161 34.5219 14.8361 36.8348 15.4797C42.3637 11.7321 44.7903 12.5108 44.7903 12.5108C46.3708 16.4966 45.377 19.4423 45.0801 20.1748C46.9361 22.1979 48.0561 24.7846 48.0561 27.9455C48.0561 39.0708 41.2846 41.5188 34.8348 42.2352C35.873 43.1295 36.7992 44.8966 36.7992 47.597C36.7992 51.469 36.7637 54.5926 36.7637 55.5419C36.7637 56.317 37.2864 57.2183 38.7548 56.9357C50.2535 53.0975 58.5432 42.2512 58.5432 29.4601C58.5432 13.4654 45.5761 0.50013 29.5814 0.50013Z"
    fill="#fff" />
</svg>