<svg width="116" height="116" viewBox="0 0 116 116" fill="none" xmlns="http://www.w3.org/2000/svg">
  <g filter="url(#filter0_d)">
    <rect x="4" y="4" width="100" height="100" rx="15" fill="white" />
    <path fill-rule="evenodd" clip-rule="evenodd"
      d="M54.2899 26.6671C38.3006 26.6671 25.3335 39.6324 25.3335 55.6271C25.3335 68.4218 33.6304 79.2751 45.1379 83.1044C46.5868 83.3711 47.1148 82.4769 47.1148 81.7089C47.1148 81.0209 47.0899 79.2004 47.0757 76.7844C39.0206 78.5338 37.3211 72.9018 37.3211 72.9018C36.0037 69.556 34.1051 68.6653 34.1051 68.6653C31.4757 66.8698 34.3042 66.9053 34.3042 66.9053C37.2108 67.1098 38.7397 69.8902 38.7397 69.8902C41.3228 74.3151 45.5184 73.0369 47.1682 72.2955C47.4313 70.4253 48.1797 69.1489 49.0064 68.4253C42.5762 67.6947 35.8153 65.2093 35.8153 54.1125C35.8153 50.9516 36.9442 48.3649 38.7966 46.3418C38.498 45.6093 37.5042 42.6636 39.0811 38.6778C39.0811 38.6778 41.5113 37.8991 47.0437 41.6467C49.353 41.0031 51.8313 40.6831 54.2935 40.6707C56.7539 40.6831 59.2304 41.0031 61.5433 41.6467C67.0722 37.8991 69.4988 38.6778 69.4988 38.6778C71.0793 42.6636 70.0855 45.6093 69.7886 46.3418C71.6446 48.3649 72.7646 50.9516 72.7646 54.1125C72.7646 65.2378 65.9931 67.6858 59.5433 68.4022C60.5815 69.2965 61.5077 71.0635 61.5077 73.764C61.5077 77.636 61.4722 80.7596 61.4722 81.7089C61.4722 82.484 61.9948 83.3853 63.4633 83.1027C74.962 79.2644 83.2517 68.4182 83.2517 55.6271C83.2517 39.6324 70.2846 26.6671 54.2899 26.6671"
      fill="black" />
  </g>
  <defs>
    <filter id="filter0_d" x="0" y="0" width="116" height="116" filterUnits="userSpaceOnUse"
      color-interpolation-filters="sRGB">
      <feFlood flood-opacity="0" result="BackgroundImageFix" />
      <feColorMatrix in="SourceAlpha" type="matrix" values="0 0 0 0 0 0 0 0 0 0 0 0 0 0 0 0 0 0 127 0" />
      <feOffset dx="4" dy="4" />
      <feGaussianBlur stdDeviation="4" />
      <feColorMatrix type="matrix" values="0 0 0 0 0 0 0 0 0 0 0 0 0 0 0 0 0 0 0.25 0" />
      <feBlend mode="normal" in2="BackgroundImageFix" result="effect1_dropShadow" />
      <feBlend mode="normal" in="SourceGraphic" in2="effect1_dropShadow" result="shape" />
    </filter>
  </defs>
</svg>