<svg width="16" height="18" viewBox="0 0 16 18" fill="none" xmlns="http://www.w3.org/2000/svg">
  <path d="M15.0717 0.94861L13.4399 16.06L7.23884 17.6748L1.11266 15.9224L0 0.780518L15.0717 0.94861Z" fill="#E44D26" />
  <path d="M7.26992 16.3882L12.2803 15.0845L13.6729 2.1703L7.51431 2.10159L7.26992 16.3882Z" fill="#F16529" />
  <path
    d="M4.78212 5.78294L7.45097 5.81271L7.48273 3.95709L2.7522 3.9043L2.78877 4.40288L3.16526 9.52119L7.38752 9.56826L7.41928 7.71265L4.92255 7.68478L4.78212 5.78294ZM5.13086 10.471L3.23871 10.4499L3.45286 13.3666L7.29483 14.4677L7.30383 14.4678L7.33695 12.5316L7.32881 12.5315L5.23714 11.9497L5.13086 10.471Z"
    fill="#EBEBEB" />
  <path
    d="M7.38043 9.5682L9.70329 9.59412L9.44313 11.9984L7.32966 12.5332L7.2966 14.4678L11.1828 13.4563L11.216 13.1429L11.743 8.26254L11.7975 7.76511L7.4121 7.71607L7.38034 9.57169L7.38043 9.5682ZM7.44465 5.80819L7.44461 5.81261L12.0021 5.86355L12.0472 5.44657L12.1534 4.5065L12.2069 4.00899L7.47632 3.95619L7.44474 5.80738L7.44465 5.80819Z"
    fill="white" />
</svg>