<svg width="20" height="21" viewBox="0 0 20 21" fill="none" xmlns="http://www.w3.org/2000/svg">
  <rect width="20" height="21" fill="#F7DF1E" />
  <path
    d="M6.17667 18.0418L7.6463 17.111C7.93012 17.6414 8.1878 18.0904 8.80667 18.0927C9.39995 18.095 9.77363 17.8522 9.77355 16.9026L9.77289 10.4417L11.5775 10.4487L11.5782 16.9356C11.5783 18.9033 10.4837 19.7949 8.88414 19.7887C7.44078 19.7831 6.60289 18.9924 6.17729 18.0411L6.17667 18.0418ZM12.5583 17.8621L14.0272 16.972C14.4141 17.6388 14.9169 18.1279 15.8064 18.1314C16.5545 18.1342 17.031 17.7427 17.031 17.1994C17.0308 16.548 16.5411 16.3156 15.7173 15.9321L15.2662 15.7268C13.9643 15.1385 13.1002 14.4022 13.1001 12.8549C13.0999 11.4296 14.1309 10.348 15.7422 10.3542C16.8895 10.3586 17.7126 10.7829 18.3075 11.8837L16.9029 12.8288C16.5932 12.2436 16.2584 12.0118 15.7424 12.0099C15.214 12.0078 14.8785 12.3593 14.8785 12.8209C14.8785 13.3911 15.2135 13.6229 15.9871 13.9778L16.438 14.1831C17.9707 14.8806 18.8361 15.5898 18.8363 17.178C18.8366 18.8882 17.5602 19.82 15.8445 19.8134C14.166 19.8069 13.0859 18.9575 12.5605 17.8598"
    fill="black" />
</svg>