<svg width="21" height="19" viewBox="0 0 21 19" fill="none" xmlns="http://www.w3.org/2000/svg">
  <path
    d="M19.7094 14.3414L19.6202 14.5518C18.0945 17.2508 15.3915 18.9062 11.5354 18.9792C9.93972 18.9993 8.35804 18.7119 6.89365 18.1358C4.51153 17.1396 2.55507 15.4608 1.32381 13.3574C-0.271896 10.5505 -0.559609 6.64625 2.75795 3.72949C2.80885 3.72949 2.35515 4.36188 2.40679 4.36188L2.31532 4.63186C-0.0749154 11.43 7.2898 17.2562 14.4487 16.5903C16.4199 16.3639 18.2613 15.5767 19.7094 14.3414Z"
    fill="#21609B" />
  <path
    d="M15.376 11.5306C17.1776 11.5179 18.9009 10.8614 20.1727 9.70309C19.1982 11.9506 16.3757 13.3956 12.5919 12.936C9.42258 12.5508 6.40379 9.65419 6.09321 6.75149C5.86599 4.63929 6.67602 3.37851 8.01131 1.84912C7.66162 2.40849 7.43071 3.02214 7.33038 3.65922C6.82356 8.22863 11.3488 11.5065 15.376 11.5306Z"
    fill="#21609B" />
  <path
    d="M19.9923 5.85446C19.7127 6.43795 18.1 7.53996 17.3881 7.67796C14.5692 8.22326 12.764 7.00872 11.8183 5.6267C11.6427 5.33395 11.4929 5.02847 11.3712 4.71361C11.0045 3.5808 11.1727 1.86718 12.2668 0.980225C11.9569 1.7687 11.8869 2.61881 12.0624 3.44012C12.2284 3.96466 12.48 4.46375 12.8083 4.91995C13.2303 5.50612 13.8182 5.97841 14.5102 6.28657C14.7802 6.4373 15.0672 6.56257 15.366 6.65904C16.0764 6.84862 17.5755 7.34903 19.9923 5.85446Z"
    fill="#21609B" />
</svg>