<svg width="116" height="116" viewBox="0 0 116 116" fill="none" xmlns="http://www.w3.org/2000/svg">
  <g filter="url(#filter0_d)">
    <rect x="4" y="4" width="100" height="100" rx="22" fill="black" />
    <path
      d="M83.1667 4H24.8333C13.3292 4 4 13.3292 4 24.8333V83.1667C4 94.6708 13.3292 104 24.8333 104H83.1667C94.675 104 104 94.6708 104 83.1667V24.8333C104 13.3292 94.675 4 83.1667 4ZM37.3333 83.1667H24.8333V37.3333H37.3333V83.1667ZM31.0833 32.05C27.0583 32.05 23.7917 28.7583 23.7917 24.7C23.7917 20.6417 27.0583 17.35 31.0833 17.35C35.1083 17.35 38.375 20.6417 38.375 24.7C38.375 28.7583 35.1125 32.05 31.0833 32.05ZM87.3333 83.1667H74.8333V59.8167C74.8333 45.7833 58.1667 46.8458 58.1667 59.8167V83.1667H45.6667V37.3333H58.1667V44.6875C63.9833 33.9125 87.3333 33.1167 87.3333 55.0042V83.1667Z"
      fill="white" />
  </g>
  <defs>
    <filter id="filter0_d" x="0" y="0" width="116" height="116" filterUnits="userSpaceOnUse"
      color-interpolation-filters="sRGB">
      <feFlood flood-opacity="0" result="BackgroundImageFix" />
      <feColorMatrix in="SourceAlpha" type="matrix" values="0 0 0 0 0 0 0 0 0 0 0 0 0 0 0 0 0 0 127 0" />
      <feOffset dx="4" dy="4" />
      <feGaussianBlur stdDeviation="4" />
      <feColorMatrix type="matrix" values="0 0 0 0 0 0 0 0 0 0 0 0 0 0 0 0 0 0 0.25 0" />
      <feBlend mode="normal" in2="BackgroundImageFix" result="effect1_dropShadow" />
      <feBlend mode="normal" in="SourceGraphic" in2="effect1_dropShadow" result="shape" />
    </filter>
  </defs>
</svg>