<svg width="30" height="20" viewBox="0 0 30 20" fill="none" xmlns="http://www.w3.org/2000/svg">
  <path fill-rule="evenodd" clip-rule="evenodd"
    d="M20.5067 2.02834C20.3649 2.02834 20.2649 2.04517 20.1641 2.06953V2.08601H20.1803C20.2478 2.21693 20.3649 2.30789 20.4478 2.42251C20.5151 2.55378 20.5736 2.68453 20.6404 2.81598C20.6486 2.80792 20.6566 2.79933 20.6566 2.79933C20.7745 2.71766 20.8329 2.58656 20.8329 2.38939C20.7823 2.33155 20.7745 2.27459 20.7323 2.21693C20.6824 2.13508 20.5736 2.09407 20.5067 2.02834"
    fill="#5B85A4" />
  <path
    d="M7.21239 18.22H6.0549C6.01411 16.3021 5.90134 14.4987 5.71688 12.8093H5.70668L3.94433 18.22H3.06302L1.31134 12.8093H1.30102C1.17108 14.4317 1.08934 16.2352 1.05539 18.22H0C0.0682011 15.8061 0.238847 13.5433 0.512026 11.431H1.94668L3.61662 16.4194H3.62687L5.30707 11.431H6.67978C6.98037 13.9049 7.15787 16.1684 7.21239 18.22Z"
    fill="#2C7493" />
  <path
    d="M12.2325 13.2112C11.7611 15.7219 11.1394 17.5463 10.3677 18.6845C9.76641 19.5615 9.10769 20 8.39042 20C8.19919 20 7.9634 19.9435 7.68359 19.8311V19.2259C7.82028 19.2455 7.98068 19.256 8.16514 19.256C8.49978 19.256 8.76945 19.1652 8.97463 18.984C9.22033 18.7632 9.34329 18.5151 9.34329 18.24C9.34329 18.0522 9.2474 17.6667 9.05644 17.0837L7.78611 13.2112H8.92323L9.83496 16.1075C10.0398 16.765 10.1252 17.2241 10.091 17.4857C10.5897 16.1782 10.9381 14.7533 11.1362 13.2112H12.2325"
    fill="#2C7493" />
  <path d="M27.642 18.22H24.3535V11.431H25.4601V17.3849H27.642V18.22Z" fill="#F18513" />
  <path fill-rule="evenodd" clip-rule="evenodd"
    d="M19.3734 16.8619C19.0933 16.4194 18.953 15.7093 18.953 14.73C18.953 13.0205 19.4825 12.1652 20.5411 12.1652C21.0945 12.1652 21.5007 12.3697 21.7605 12.7785C22.0402 13.2212 22.1806 13.9252 22.1806 14.8907C22.1806 16.6139 21.651 17.4759 20.5925 17.4759C20.0392 17.4759 19.6328 17.2715 19.3734 16.8619V16.8619ZM23.4919 18.3837L22.2207 17.7684C22.3339 17.6773 22.4414 17.579 22.5387 17.4652C23.0784 16.8423 23.3485 15.9204 23.3485 14.6998C23.3485 12.4539 22.4503 11.3303 20.6541 11.3303C19.773 11.3303 19.0863 11.6151 18.5946 12.1855C18.0547 12.8091 17.7852 13.7276 17.7852 14.9413C17.7852 16.1346 18.024 17.01 18.5022 17.5662C18.9394 18.0688 19.5986 18.3205 20.4798 18.3205C20.8089 18.3205 21.1108 18.2807 21.3852 18.2012L23.0406 19.1468L23.4919 18.3837"
    fill="#F18513" />
  <path
    d="M17.3029 16.3382C17.3029 16.914 17.0874 17.3867 16.6578 17.7565C16.2279 18.1247 15.6503 18.3093 14.9271 18.3093C14.2506 18.3093 13.595 18.0968 12.96 17.6754L13.257 17.0922C13.8035 17.3604 14.2981 17.4943 14.7421 17.4943C15.1586 17.4943 15.4847 17.4033 15.7205 17.2235C15.9558 17.0424 16.0969 16.7899 16.0969 16.4695C16.0969 16.0664 15.8105 15.7219 15.285 15.4328C14.8 15.1715 13.8305 14.6259 13.8305 14.6259C13.3053 14.2498 13.0419 13.8462 13.0419 13.1812C13.0419 12.6313 13.2383 12.1867 13.6305 11.8486C14.0237 11.5097 14.5309 11.3402 15.152 11.3402C15.7941 11.3402 16.3779 11.5084 16.9037 11.8436L16.6366 12.4262C16.1867 12.239 15.743 12.145 15.3056 12.145C14.9506 12.145 14.6771 12.2286 14.4865 12.3969C14.2947 12.5638 14.1762 12.7785 14.1762 13.0401C14.1762 13.4422 14.4688 13.791 15.009 14.0856C15.5002 14.3471 16.4934 14.9032 16.4934 14.9032C17.0336 15.2786 17.3029 15.6789 17.3029 16.3382"
    fill="#F18513" />
  <path fill-rule="evenodd" clip-rule="evenodd"
    d="M29.0295 9.15693C28.3607 9.14051 27.8428 9.20602 27.4084 9.38663C27.2831 9.43579 27.0828 9.43579 27.0656 9.59167C27.1329 9.65718 27.141 9.76371 27.1999 9.85436C27.2999 10.0184 27.475 10.2395 27.6341 10.3547C27.8096 10.486 27.9851 10.6168 28.1691 10.7316C28.4948 10.9293 28.8626 11.0436 29.1797 11.2406C29.3641 11.3553 29.5473 11.5028 29.7317 11.6262C29.8233 11.6917 29.8813 11.7986 29.9988 11.8391V11.8143C29.9399 11.7407 29.9235 11.634 29.8653 11.5515C29.7819 11.4701 29.6981 11.3958 29.6144 11.3142C29.372 10.9943 29.0708 10.7157 28.7456 10.486C28.478 10.305 27.8928 10.0589 27.7846 9.75633C27.7846 9.75633 27.7758 9.74764 27.7676 9.73956C27.9515 9.72291 28.1691 9.65719 28.3445 9.60743C28.6282 9.53382 28.8872 9.55047 29.1797 9.47686C29.3136 9.4438 29.4473 9.40251 29.5816 9.36218V9.28784C29.4303 9.14051 29.3221 8.94334 29.1634 8.80402C28.7376 8.44322 28.2691 8.09077 27.7846 7.79501C27.5252 7.63091 27.1909 7.52479 26.9151 7.385C26.8153 7.3357 26.6484 7.31141 26.5896 7.22891C26.4391 7.04852 26.3552 6.81095 26.2468 6.59734C26.0047 6.14668 25.7703 5.64648 25.5618 5.16994C25.4115 4.85026 25.3195 4.53058 25.1356 4.23508C24.2745 2.84034 23.339 1.99592 21.9018 1.16728C21.5926 0.994818 21.225 0.921033 20.8325 0.830772C20.6233 0.822184 20.4146 0.806236 20.2057 0.798174C20.0718 0.740512 19.9379 0.584527 19.8211 0.510741C19.3446 0.215598 18.1168 -0.424113 17.7656 0.420656C17.54 0.954157 18.0998 1.4789 18.2921 1.74968C18.4341 1.93809 18.6181 2.15173 18.7179 2.36468C18.7765 2.50419 18.7933 2.65211 18.852 2.7995C18.9856 3.16037 19.1107 3.56243 19.2866 3.89893C19.3782 4.07121 19.4783 4.25191 19.5953 4.40702C19.6628 4.49781 19.7793 4.53829 19.8045 4.68639C19.6879 4.85026 19.6788 5.09633 19.6121 5.30156C19.3114 6.22853 19.4282 7.37692 19.8545 8.05765C19.9879 8.26269 20.3058 8.71399 20.732 8.54132C21.108 8.39392 21.0245 7.92634 21.133 7.51645C21.158 7.41732 21.1412 7.35228 21.1912 7.28675V7.30333C21.3082 7.53268 21.4255 7.7536 21.534 7.98405C21.7934 8.38558 22.2442 8.80402 22.6206 9.08266C22.8205 9.23088 22.9794 9.48474 23.2301 9.57525V9.55047H23.2137C23.1633 9.47686 23.0883 9.4438 23.0214 9.38663C22.8711 9.23888 22.7043 9.05835 22.5868 8.89439C22.236 8.43522 21.9264 7.92634 21.6513 7.40142C21.5172 7.14654 21.4005 6.86791 21.2917 6.61377C21.2417 6.5158 21.2417 6.36772 21.158 6.31863C21.0323 6.49889 20.849 6.65498 20.7572 6.87578C20.5983 7.22891 20.5817 7.66357 20.5228 8.11494C20.4896 8.12351 20.5063 8.11494 20.4896 8.13124C20.2225 8.06566 20.1305 7.79501 20.03 7.56608C19.7793 6.98291 19.7372 6.04783 19.9548 5.37517C20.013 5.20324 20.2644 4.66185 20.1637 4.4978C20.1132 4.34129 19.9463 4.25191 19.8545 4.12835C19.7461 3.97254 19.6285 3.77607 19.554 3.60344C19.3534 3.14425 19.2525 2.63546 19.0359 2.17627C18.9356 1.96262 18.7597 1.74109 18.6181 1.54462C18.4591 1.32309 18.2837 1.16728 18.1582 0.905084C18.1168 0.814648 18.0582 0.666902 18.1248 0.568755C18.1413 0.503031 18.1752 0.478317 18.2421 0.461842C18.3502 0.371582 18.6597 0.486205 18.7681 0.535454C19.0775 0.658138 19.3366 0.773637 19.5953 0.945571C19.7124 1.02777 19.8377 1.18358 19.9879 1.22494H20.1637C20.431 1.2819 20.732 1.24089 20.9829 1.31502C21.4255 1.45436 21.8264 1.65942 22.186 1.88095C23.2803 2.56185 24.1828 3.53 24.7925 4.68639C24.893 4.8748 24.9351 5.04726 25.0269 5.24373C25.2024 5.64648 25.4199 6.05659 25.595 6.44994C25.7703 6.83552 25.9378 7.22891 26.1888 7.54931C26.3138 7.72128 26.8153 7.81152 27.041 7.90182C27.2077 7.97541 27.4671 8.04114 27.6176 8.13124C27.9017 8.30321 28.1852 8.50038 28.453 8.68935C28.5864 8.78779 29.0043 8.99262 29.0295 9.15693"
    fill="#2C7493" />
  <path
    d="M28.4319 18.2194H28.6152V17.5286H28.8552V17.3875H28.1826V17.5286H28.4319V18.2194ZM29.8271 18.2194H29.9999V17.3875H29.74L29.5284 17.9545L29.2981 17.3875H29.0476V18.2194H29.2112V17.5863H29.2205L29.4617 18.2194H29.5863L29.8271 17.5863V18.2194"
    fill="#F18513" />
</svg>