<svg width="18" height="18" viewBox="0 0 18 18" fill="none" xmlns="http://www.w3.org/2000/svg">
  <path
    d="M8.89287 0.000160365C8.15054 0.00358842 7.44177 0.0661533 6.81825 0.175423C4.98095 0.496517 4.64744 1.16841 4.64744 2.40766V4.04441H8.98906V4.5899H3.01793C1.7562 4.5899 0.651134 5.34007 0.305677 6.767C-0.0930609 8.40275 -0.110629 9.42346 0.305677 11.1313C0.61427 12.4027 1.35141 13.3086 2.61314 13.3086H4.10586V11.3466C4.10586 9.92924 5.34585 8.679 6.81825 8.679H11.1548C12.362 8.679 13.3256 7.696 13.3256 6.4969V2.40751C13.3256 1.24383 12.3329 0.369535 11.1548 0.175279C10.4088 0.0525829 9.63505 -0.00341053 8.89287 0.000160365ZM6.5448 1.31639C6.99336 1.31639 7.35955 1.68462 7.35955 2.13712C7.35955 2.5882 6.99321 2.953 6.5448 2.953C6.09479 2.953 5.73019 2.58834 5.73019 2.13712C5.73019 1.68462 6.09479 1.31639 6.5448 1.31639Z"
    fill="url(#paint0_linear)" />
  <path
    d="M13.867 4.58972V6.49658C13.867 7.97493 12.5997 9.21917 11.1546 9.21917H6.81803C5.63017 9.21917 4.64722 10.2247 4.64722 11.4014V15.4904C4.64722 16.6542 5.67034 17.3388 6.81803 17.6725C8.19237 18.0723 9.51027 18.1445 11.1546 17.6725C12.2477 17.3595 13.3254 16.7295 13.3254 15.4904V13.8539H8.98883V13.3084H15.4962C16.7582 13.3084 17.2283 12.4377 17.667 11.1312C18.1205 9.78623 18.1012 8.49242 17.667 6.76682C17.3553 5.52458 16.7597 4.58972 15.4962 4.58972H13.867ZM11.4278 14.9449C11.8778 14.9449 12.2425 15.3095 12.2425 15.7608C12.2425 16.2133 11.8778 16.5815 11.4278 16.5815C10.9794 16.5815 10.6132 16.2133 10.6132 15.7608C10.6132 15.3097 10.9795 14.9449 11.4278 14.9449Z"
    fill="url(#paint1_linear)" />
  <defs>
    <linearGradient id="paint0_linear" x1="-0.428294" y1="0.511226" x2="9.49074" y2="9.05597"
      gradientUnits="userSpaceOnUse">
      <stop stop-color="#5A9FD4" />
      <stop offset="1" stop-color="#306998" />
    </linearGradient>
    <linearGradient id="paint1_linear" x1="13.3401" y1="14.208" x2="9.80018" y2="9.19328"
      gradientUnits="userSpaceOnUse">
      <stop stop-color="#FFD43B" />
      <stop offset="1" stop-color="#FFE873" />
    </linearGradient>
  </defs>
</svg>