<svg width="16" height="16" viewBox="0 0 16 16" fill="none" xmlns="http://www.w3.org/2000/svg">
  <g clip-path="url(#clip0)">
    <path fill-rule="evenodd" clip-rule="evenodd"
      d="M8.00004 -4.01371e-05C12.4183 -4.01371e-05 16 3.58171 16 8C16 12.4183 12.4183 16 8.00004 16C3.58175 16 0 12.4183 0 8C0 3.58171 3.58175 -4.01371e-05 8.00004 -4.01371e-05Z"
      fill="#CC499C" />
    <path
      d="M6.41032 10.6648C6.52672 11.0954 6.51394 11.4969 6.39373 11.8605C6.38037 11.9009 6.36565 11.9408 6.34969 11.9803C6.33372 12.0197 6.31643 12.0587 6.29789 12.0972C6.20517 12.2895 6.08075 12.4696 5.92837 12.6358C5.46357 13.1429 4.81413 13.3347 4.53566 13.1731C4.23495 12.9988 4.38558 12.2838 4.9245 11.7142C5.50426 11.1013 6.33843 10.7072 6.33843 10.7072L6.33715 10.7047C6.36117 10.6918 6.38559 10.6785 6.41032 10.6648ZM13.0183 3.4241C12.6561 2.00327 10.3002 1.5362 8.07044 2.32835C6.7435 2.79974 5.30698 3.53964 4.27409 4.50578C3.04599 5.65448 2.85014 6.65428 2.93087 7.07204C3.2156 8.54614 5.23541 9.50968 6.06572 10.2246V10.2289C5.8209 10.3494 4.02891 11.2563 3.60955 12.1834C3.16706 13.1615 3.67998 13.8634 4.01957 13.9579C5.07173 14.2506 6.15143 13.7241 6.73167 12.8586C7.29161 12.0234 7.245 10.9448 7.00165 10.4083C7.33733 10.3198 7.72865 10.2801 8.22598 10.3382C9.62932 10.5021 9.90468 11.3784 9.85203 11.745C9.79942 12.1118 9.50506 12.3134 9.40665 12.3743C9.30821 12.4352 9.27818 12.4562 9.28648 12.5015C9.29839 12.5673 9.34396 12.5649 9.42788 12.5506C9.54338 12.5312 10.1648 12.2524 10.1913 11.5754C10.2252 10.716 9.40155 9.75458 7.94322 9.7797C7.34262 9.79006 6.96497 9.84719 6.69218 9.94871C6.67201 9.92573 6.65148 9.90287 6.63026 9.88025C5.72868 8.91835 4.06201 8.23792 4.13269 6.94478C4.15839 6.47467 4.32179 5.23676 7.33522 3.73516C9.80374 2.50515 11.7799 2.84363 12.1214 3.5938C12.6092 4.66552 11.0653 6.65747 8.50168 6.94478C7.52499 7.05428 7.01072 6.67573 6.8828 6.53476C6.7481 6.38635 6.72804 6.37966 6.67777 6.4075C6.59584 6.45287 6.64775 6.58391 6.67777 6.66202C6.75429 6.86121 7.06839 7.21445 7.60388 7.39016C8.07492 7.54476 9.22168 7.62969 10.6085 7.09327C12.1617 6.49243 13.3746 4.82113 13.0183 3.4241"
      fill="white" />
  </g>
  <defs>
    <clipPath id="clip0">
      <rect width="16" height="16" fill="white" />
    </clipPath>
  </defs>
</svg>