<svg width="1920" height="750" viewBox="0 0 1920 750" fill="none" xmlns="http://www.w3.org/2000/svg">
  <path
    d="M0 0H878.483H1920V749C1819.05 529.413 1573.36 166.784 1398.19 472.965C1223.02 779.146 978.73 495.179 878.483 314.922C834.603 202.414 699.462 25.8253 509.942 219.532C320.422 413.238 91.014 153.888 0 0Z"
    fill="#679B9B" stroke="#C679B9" />
  <path
    d="M0 0H878.483H1920V580.599C1819.05 410.383 1573.36 129.285 1398.19 366.626C1223.02 603.967 978.73 383.845 878.483 244.117C834.603 156.905 699.462 20.0189 509.942 170.173C320.422 320.328 91.014 119.289 0 0Z"
    fill="#AACFCF" stroke="#AACFCF" />
  <path
    d="M0 0H878.483H1920V412.748C1819.05 291.741 1573.36 91.909 1398.19 260.635C1223.02 429.36 978.73 272.876 878.483 173.543C834.603 111.544 699.463 14.2314 509.942 120.976C320.422 227.721 91.014 84.8025 0 0Z"
    fill="#FDE2E2" stroke="#FDE2E2" />
  <path
    d="M0 0H878.483H1920V749C1819.05 529.413 1573.36 166.784 1398.19 472.965C1223.02 779.146 978.73 495.179 878.483 314.922C834.603 202.414 699.462 25.8253 509.942 219.532C320.422 413.238 91.014 153.888 0 0Z"
    fill="#BBE1FA" stroke="#BBE1FA" />
  <path
    d="M0 0H878.483H1920V580.599C1819.05 410.383 1573.36 129.285 1398.19 366.626C1223.02 603.967 978.73 383.845 878.483 244.117C834.603 156.905 699.463 20.0189 509.942 170.173C320.422 320.328 91.014 119.289 0 0Z"
    fill="#3282B8" stroke="#3282B8" />
  <path
    d="M0 0H878.483H1920V412.748C1819.05 291.741 1573.36 91.909 1398.19 260.635C1223.02 429.36 978.73 272.876 878.483 173.543C834.603 111.544 699.463 14.2314 509.942 120.976C320.422 227.721 91.014 84.8025 0 0Z"
    fill="#0F4C75" stroke="#0F4C75" />
</svg>